<svg width="1530" height="966" viewBox="0 0 1530 966" xmlns="http://www.w3.org/2000/svg">
<defs>
<pattern id="dots" width="22" height="22" patternUnits="userSpaceOnUse">
<circle cx="1.4" cy="1.4" r="1.4" fill="#e6eaef" />
</pattern>
</defs>
<rect class="grid-bg" x="0" y="0" width="1530" height="966" fill="url(#dots)" />
<g transform="translate(12,28)">
<g data-system-connection-id="smart_lock_radio_spi">
<path class="wire" d="M 204 108 L 527 108 Q 536 108 536 99 L 536 87 Q 536 78 545 78 L 560 78" fill="none" stroke="#9aa4b0" stroke-width="2.6" stroke-linejoin="round" stroke-linecap="round" />
<rect class="wlabel-bg" x="353.1" y="99" width="33.8" height="18" rx="5" fill="#fff" stroke="#e3e8ee" stroke-width="1" />
<text class="wlabel-t" x="370" y="108.5" font-family="JetBrains Mono, monospace" font-size="10.5" font-weight="600" fill="#5a6573" text-anchor="middle" dominant-baseline="middle">SPI</text>
</g>
<g data-system-connection-id="smart_lock_radio_gpio">
<path class="wire" d="M 204 156 L 527 156 Q 536 156 536 147 L 536 121 Q 536 112 545 112 L 560 112" fill="none" stroke="#9aa4b0" stroke-width="2.6" stroke-linejoin="round" stroke-linecap="round" />
<rect class="wlabel-bg" x="349.8" y="147" width="40.4" height="18" rx="5" fill="#fff" stroke="#e3e8ee" stroke-width="1" />
<text class="wlabel-t" x="370" y="156.5" font-family="JetBrains Mono, monospace" font-size="10.5" font-weight="600" fill="#5a6573" text-anchor="middle" dominant-baseline="middle">GPIO</text>
</g>
<g data-system-connection-id="smart_lock_shifted_radio_spi">
<path class="wire" d="M 704 89.33333333333334 L 905 89.33333333333334 Q 914 89.33333333333334 914 98.33333333333334 L 914 185.6 Q 914 194.6 923 194.6 L 938 194.6" fill="none" stroke="#9aa4b0" stroke-width="2.6" stroke-linejoin="round" stroke-linecap="round" />
<rect class="wlabel-bg" x="792.1" y="80.333" width="33.8" height="18" rx="5" fill="#fff" stroke="#e3e8ee" stroke-width="1" />
<text class="wlabel-t" x="809" y="89.833" font-family="JetBrains Mono, monospace" font-size="10.5" font-weight="600" fill="#5a6573" text-anchor="middle" dominant-baseline="middle">SPI</text>
</g>
<g data-system-connection-id="smart_lock_shifted_radio_gpio">
<path class="wire" d="M 704 134.66666666666669 L 812 134.66666666666669 Q 821 134.66666666666669 821 143.66666666666669 L 821 229.2 Q 821 238.2 830 238.2 L 938 238.2" fill="none" stroke="#9aa4b0" stroke-width="2.6" stroke-linejoin="round" stroke-linecap="round" />
<rect class="wlabel-bg" x="742.3" y="125.667" width="40.4" height="18" rx="5" fill="#fff" stroke="#e3e8ee" stroke-width="1" />
<text class="wlabel-t" x="762.5" y="135.167" font-family="JetBrains Mono, monospace" font-size="10.5" font-weight="600" fill="#5a6573" text-anchor="middle" dominant-baseline="middle">GPIO</text>
</g>
<g data-system-connection-id="smart_lock_flash_spi">
<path class="wire" d="M 1238 223.66666666666669 L 1293 223.66666666666669 Q 1302 223.66666666666669 1302 214.66666666666669 L 1302 205 Q 1302 196 1311 196 L 1326 196" fill="none" stroke="#9aa4b0" stroke-width="2.6" stroke-linejoin="round" stroke-linecap="round" />
<rect class="wlabel-bg" x="1253.1" y="214.667" width="33.8" height="18" rx="5" fill="#fff" stroke="#e3e8ee" stroke-width="1" />
<text class="wlabel-t" x="1270" y="224.167" font-family="JetBrains Mono, monospace" font-size="10.5" font-weight="600" fill="#5a6573" text-anchor="middle" dominant-baseline="middle">SPI</text>
</g>
<g data-system-connection-id="smart_lock_flash_gpio">
<path class="wire" d="M 1238 296.33333333333337 L 1293 296.33333333333337 Q 1302 296.33333333333337 1302 287.33333333333337 L 1302 253 Q 1302 244 1311 244 L 1326 244" fill="none" stroke="#9aa4b0" stroke-width="2.6" stroke-linejoin="round" stroke-linecap="round" />
<rect class="wlabel-bg" x="1249.8" y="287.333" width="40.4" height="18" rx="5" fill="#fff" stroke="#e3e8ee" stroke-width="1" />
<text class="wlabel-t" x="1270" y="296.833" font-family="JetBrains Mono, monospace" font-size="10.5" font-weight="600" fill="#5a6573" text-anchor="middle" dominant-baseline="middle">GPIO</text>
</g>
<g data-system-connection-id="smart_lock_radio_nfc_gpio_1">
<path class="wire" d="M 96 204 L 96 350" fill="none" stroke="#9aa4b0" stroke-width="2.6" stroke-linejoin="round" stroke-linecap="round" />
<rect class="wlabel-bg" x="75.8" y="268" width="40.4" height="18" rx="5" fill="#fff" stroke="#e3e8ee" stroke-width="1" />
<text class="wlabel-t" x="96" y="277.5" font-family="JetBrains Mono, monospace" font-size="10.5" font-weight="600" fill="#5a6573" text-anchor="middle" dominant-baseline="middle">GPIO</text>
</g>
<g data-system-connection-id="smart_lock_radio_nfc_spi">
<path class="wire" d="M 132 204 L 132 350" fill="none" stroke="#9aa4b0" stroke-width="2.6" stroke-linejoin="round" stroke-linecap="round" />
<rect class="wlabel-bg" x="115.1" y="268" width="33.8" height="18" rx="5" fill="#fff" stroke="#e3e8ee" stroke-width="1" />
<text class="wlabel-t" x="132" y="277.5" font-family="JetBrains Mono, monospace" font-size="10.5" font-weight="600" fill="#5a6573" text-anchor="middle" dominant-baseline="middle">SPI</text>
</g>
<g data-system-connection-id="smart_lock_radio_nfc_gpio_2">
<path class="wire" d="M 168 204 L 168 350" fill="none" stroke="#9aa4b0" stroke-width="2.6" stroke-linejoin="round" stroke-linecap="round" />
<rect class="wlabel-bg" x="147.8" y="268" width="40.4" height="18" rx="5" fill="#fff" stroke="#e3e8ee" stroke-width="1" />
<text class="wlabel-t" x="168" y="277.5" font-family="JetBrains Mono, monospace" font-size="10.5" font-weight="600" fill="#5a6573" text-anchor="middle" dominant-baseline="middle">GPIO</text>
</g>
<g data-system-connection-id="smart_lock_nfc_shift_oe">
<path class="wire" d="M 204 386 L 528.6 386 Q 536 386 536 378.6 L 536 378.6 Q 536 371.2 543.4 371.2 L 560 371.2" fill="none" stroke="#9aa4b0" stroke-width="2.6" stroke-linejoin="round" stroke-linecap="round" />
<rect class="wlabel-bg" x="349.8" y="377" width="40.4" height="18" rx="5" fill="#fff" stroke="#e3e8ee" stroke-width="1" />
<text class="wlabel-t" x="370" y="386.5" font-family="JetBrains Mono, monospace" font-size="10.5" font-weight="600" fill="#5a6573" text-anchor="middle" dominant-baseline="middle">GPIO</text>
</g>
<g data-system-connection-id="smart_lock_nfc_shift_data_1">
<path class="wire" d="M 204 422 L 527 422 Q 536 422 536 413 L 536 407.4 Q 536 398.4 545 398.4 L 560 398.4" fill="none" stroke="#9aa4b0" stroke-width="2.6" stroke-linejoin="round" stroke-linecap="round" />
<rect class="wlabel-bg" x="349.8" y="413" width="40.4" height="18" rx="5" fill="#fff" stroke="#e3e8ee" stroke-width="1" />
<text class="wlabel-t" x="370" y="422.5" font-family="JetBrains Mono, monospace" font-size="10.5" font-weight="600" fill="#5a6573" text-anchor="middle" dominant-baseline="middle">GPIO</text>
</g>
<g data-system-connection-id="smart_lock_nfc_shift_data_2">
<path class="wire" d="M 204 458 L 527 458 Q 536 458 536 449 L 536 434.6 Q 536 425.6 545 425.6 L 560 425.6" fill="none" stroke="#9aa4b0" stroke-width="2.6" stroke-linejoin="round" stroke-linecap="round" />
<rect class="wlabel-bg" x="349.8" y="449" width="40.4" height="18" rx="5" fill="#fff" stroke="#e3e8ee" stroke-width="1" />
<text class="wlabel-t" x="370" y="458.5" font-family="JetBrains Mono, monospace" font-size="10.5" font-weight="600" fill="#5a6573" text-anchor="middle" dominant-baseline="middle">GPIO</text>
</g>
<g data-system-connection-id="smart_lock_shifted_nfc_gpio_1">
<path class="wire" d="M 704 389.3333333333333 L 905 389.3333333333333 Q 914 389.3333333333333 914 380.3333333333333 L 914 290.8 Q 914 281.8 923 281.8 L 938 281.8" fill="none" stroke="#9aa4b0" stroke-width="2.6" stroke-linejoin="round" stroke-linecap="round" />
<rect class="wlabel-bg" x="788.8" y="380.333" width="40.4" height="18" rx="5" fill="#fff" stroke="#e3e8ee" stroke-width="1" />
<text class="wlabel-t" x="809" y="389.833" font-family="JetBrains Mono, monospace" font-size="10.5" font-weight="600" fill="#5a6573" text-anchor="middle" dominant-baseline="middle">GPIO</text>
</g>
<g data-system-connection-id="smart_lock_shifted_nfc_gpio_2">
<path class="wire" d="M 704 434.6666666666667 L 719 434.6666666666667 Q 728 434.6666666666667 728 425.6666666666667 L 728 337 Q 728 328 737 328 L 912.7 328 Q 914 328 914 326.7 L 914 326.7 Q 914 325.4 915.3 325.4 L 938 325.4" fill="none" stroke="#9aa4b0" stroke-width="2.6" stroke-linejoin="round" stroke-linecap="round" />
<rect class="wlabel-bg" x="800.8" y="319" width="40.4" height="18" rx="5" fill="#fff" stroke="#e3e8ee" stroke-width="1" />
<text class="wlabel-t" x="821" y="328.5" font-family="JetBrains Mono, monospace" font-size="10.5" font-weight="600" fill="#5a6573" text-anchor="middle" dominant-baseline="middle">GPIO</text>
</g>
<g data-system-connection-id="smart_lock_authenticator_i2c">
<path class="wire" d="M 156 494 L 156 553 Q 156 562 165 562 L 320 562" fill="none" stroke="#9aa4b0" stroke-width="2.6" stroke-linejoin="round" stroke-linecap="round" />
<rect class="wlabel-bg" x="221.1" y="553" width="33.8" height="18" rx="5" fill="#fff" stroke="#e3e8ee" stroke-width="1" />
<text class="wlabel-t" x="238" y="562.5" font-family="JetBrains Mono, monospace" font-size="10.5" font-weight="600" fill="#5a6573" text-anchor="middle" dominant-baseline="middle">I2C</text>
</g>
<g data-system-connection-id="smart_lock_pmic_i2c">
<path class="wire" d="M 1138 369 L 1138 677 Q 1138 686 1129 686 L 1121 686 Q 1112 686 1112 695 L 1112 710" fill="none" stroke="#9aa4b0" stroke-width="2.6" stroke-linejoin="round" stroke-linecap="round" />
<rect class="wlabel-bg" x="1121.1" y="518.5" width="33.8" height="18" rx="5" fill="#fff" stroke="#e3e8ee" stroke-width="1" />
<text class="wlabel-t" x="1138" y="528" font-family="JetBrains Mono, monospace" font-size="10.5" font-weight="600" fill="#5a6573" text-anchor="middle" dominant-baseline="middle">I2C</text>
</g>
<g data-system-connection-id="smart_lock_radio_supply">
<path class="wire" d="M 1016 782 L 45 782 Q 36 782 36 773 L 36 141 Q 36 132 45 132 L 60 132" fill="none" stroke="#9aa4b0" stroke-width="2.6" stroke-linejoin="round" stroke-linecap="round" />
<rect class="wlabel-bg" x="499.2" y="773" width="53.6" height="18" rx="5" fill="#fff" stroke="#e3e8ee" stroke-width="1" />
<text class="wlabel-t" x="526" y="782.5" font-family="JetBrains Mono, monospace" font-size="10.5" font-weight="600" fill="#5a6573" text-anchor="middle" dominant-baseline="middle">SUPPLY</text>
</g>
<g data-system-connection-id="smart_lock_radio_shifter_supply">
<path class="wire" d="M 1016 782 L 1001 782 Q 992 782 992 773 L 992 525 Q 992 516 983 516 L 509 516 Q 500 516 500 507 L 500 29 Q 500 20 509 20 L 623 20 Q 632 20 632 29 L 632 44" fill="none" stroke="#9aa4b0" stroke-width="2.6" stroke-linejoin="round" stroke-linecap="round" />
<rect class="wlabel-bg" x="473.2" y="259" width="53.6" height="18" rx="5" fill="#fff" stroke="#e3e8ee" stroke-width="1" />
<text class="wlabel-t" x="500" y="268.5" font-family="JetBrains Mono, monospace" font-size="10.5" font-weight="600" fill="#5a6573" text-anchor="middle" dominant-baseline="middle">SUPPLY</text>
</g>
<g data-system-connection-id="smart_lock_radio_shifter_logic_supply">
<path class="wire" d="M 1016 782 L 1001 782 Q 992 782 992 773 L 992 683 Q 992 674 983 674 L 545 674 Q 536 674 536 665 L 536 155 Q 536 146 545 146 L 560 146" fill="none" stroke="#9aa4b0" stroke-width="2.6" stroke-linejoin="round" stroke-linecap="round" />
<rect class="wlabel-bg" x="965.2" y="665" width="53.6" height="18" rx="5" fill="#fff" stroke="#e3e8ee" stroke-width="1" />
<text class="wlabel-t" x="992" y="674.5" font-family="JetBrains Mono, monospace" font-size="10.5" font-weight="600" fill="#5a6573" text-anchor="middle" dominant-baseline="middle">SUPPLY</text>
</g>
<g data-system-connection-id="smart_lock_ble_supply">
<path class="wire" d="M 1064 710 L 1064 402 Q 1064 393 1055 393 L 1047 393 Q 1038 393 1038 384 L 1038 369" fill="none" stroke="#9aa4b0" stroke-width="2.6" stroke-linejoin="round" stroke-linecap="round" />
<rect class="wlabel-bg" x="1037.2" y="542.5" width="53.6" height="18" rx="5" fill="#fff" stroke="#e3e8ee" stroke-width="1" />
<text class="wlabel-t" x="1064" y="552" font-family="JetBrains Mono, monospace" font-size="10.5" font-weight="600" fill="#5a6573" text-anchor="middle" dominant-baseline="middle">SUPPLY</text>
</g>
<g data-system-connection-id="smart_lock_flash_supply">
<path class="wire" d="M 1064 710 L 1064 695 Q 1064 686 1073 686 L 1389 686 Q 1398 686 1398 677 L 1398 292" fill="none" stroke="#9aa4b0" stroke-width="2.6" stroke-linejoin="round" stroke-linecap="round" />
<rect class="wlabel-bg" x="1371.2" y="480" width="53.6" height="18" rx="5" fill="#fff" stroke="#e3e8ee" stroke-width="1" />
<text class="wlabel-t" x="1398" y="489.5" font-family="JetBrains Mono, monospace" font-size="10.5" font-weight="600" fill="#5a6573" text-anchor="middle" dominant-baseline="middle">SUPPLY</text>
</g>
<g data-system-connection-id="smart_lock_nfc_supply">
<path class="wire" d="M 1016 782 L 1001 782 Q 992 782 992 791 L 992 881 Q 992 890 983 890 L 117 890 Q 108 890 108 881 L 108 494" fill="none" stroke="#9aa4b0" stroke-width="2.6" stroke-linejoin="round" stroke-linecap="round" />
<rect class="wlabel-bg" x="523.2" y="881" width="53.6" height="18" rx="5" fill="#fff" stroke="#e3e8ee" stroke-width="1" />
<text class="wlabel-t" x="550" y="890.5" font-family="JetBrains Mono, monospace" font-size="10.5" font-weight="600" fill="#5a6573" text-anchor="middle" dominant-baseline="middle">SUPPLY</text>
</g>
<g data-system-connection-id="smart_lock_nfc_shifter_supply">
<path class="wire" d="M 1064 710 L 1064 695 Q 1064 686 1055 686 L 911 686 Q 902 686 902 677 L 902 604 Q 902 595 893 595 L 641 595 Q 632 595 632 586 L 632 480" fill="none" stroke="#9aa4b0" stroke-width="2.6" stroke-linejoin="round" stroke-linecap="round" />
<rect class="wlabel-bg" x="740.2" y="586" width="53.6" height="18" rx="5" fill="#fff" stroke="#e3e8ee" stroke-width="1" />
<text class="wlabel-t" x="767" y="595.5" font-family="JetBrains Mono, monospace" font-size="10.5" font-weight="600" fill="#5a6573" text-anchor="middle" dominant-baseline="middle">SUPPLY</text>
</g>
<g data-system-connection-id="smart_lock_nfc_shifter_logic_supply">
<path class="wire" d="M 1016 782 L 989 782 Q 980 782 980 773 L 980 626.4 Q 980 617.4 971 617.4 L 545 617.4 Q 536 617.4 536 608.4 L 536 461.8 Q 536 452.8 545 452.8 L 560 452.8" fill="none" stroke="#9aa4b0" stroke-width="2.6" stroke-linejoin="round" stroke-linecap="round" />
<rect class="wlabel-bg" x="953.2" y="608.4" width="53.6" height="18" rx="5" fill="#fff" stroke="#e3e8ee" stroke-width="1" />
<text class="wlabel-t" x="980" y="617.9" font-family="JetBrains Mono, monospace" font-size="10.5" font-weight="600" fill="#5a6573" text-anchor="middle" dominant-baseline="middle">SUPPLY</text>
</g>
<g data-system-connection-id="smart_lock_authenticator_supply">
<path class="wire" d="M 1016 782 L 911 782 Q 902 782 902 773 L 902 571 Q 902 562 893 562 L 464 562" fill="none" stroke="#9aa4b0" stroke-width="2.6" stroke-linejoin="round" stroke-linecap="round" />
<rect class="wlabel-bg" x="656.2" y="553" width="53.6" height="18" rx="5" fill="#fff" stroke="#e3e8ee" stroke-width="1" />
<text class="wlabel-t" x="683" y="562.5" font-family="JetBrains Mono, monospace" font-size="10.5" font-weight="600" fill="#5a6573" text-anchor="middle" dominant-baseline="middle">SUPPLY</text>
</g>
<g class="block" data-system-block-id="radio_transceiver" transform="translate(60,60)">
<rect class="block-rect" width="144" height="144" rx="14" fill="#fff" stroke="#2b3543" stroke-width="1.6" />
<rect class="numbadge" x="9" y="9" width="22" height="18" rx="5" fill="#f1f4f8" stroke="#cfd6df" stroke-width="1" />
<text class="numbadge-t" x="20" y="22" font-family="Inter, sans-serif" font-size="11" font-weight="700" fill="#5a6573" text-anchor="middle">1</text>
<circle class="status-dot" cx="129" cy="18" r="7" fill="#22c55e" stroke="#fff" stroke-width="1.5" />
<path d="M 126 18 l 2 2 l 3.5 -4" stroke="#fff" stroke-width="1.6" fill="none" stroke-linecap="round" stroke-linejoin="round" />
<g transform="translate(49,42) scale(1.917)" fill="none" stroke="#1f2733" stroke-width="1.7" stroke-linecap="round" stroke-linejoin="round"><circle cx="12" cy="9" r="2"/><path d="M12 11v9M7.5 4.5a6.4 6.4 0 0 1 9 0M5 7a9.9 9.9 0 0 1 14 0"/></g>
<text class="block-label" x="72" y="131" font-family="Inter, sans-serif" font-size="12.5" font-weight="600" fill="#1f2733" text-anchor="middle">Radio Transceiver</text>
<circle class="port" data-system-port-id="radio_transceiver_vbat_cc" cx="0" cy="72" r="4.5" fill="#fff" stroke="#cfd6df" stroke-width="1.6" />
<circle class="port" data-system-port-id="radio_transceiver_sfl_clk" cx="144" cy="48" r="4.5" fill="#fff" stroke="#cfd6df" stroke-width="1.6" />
<circle class="port" data-system-port-id="radio_transceiver_p01_gpio_10" cx="144" cy="96" r="4.5" fill="#fff" stroke="#cfd6df" stroke-width="1.6" />
<circle class="port" data-system-port-id="radio_transceiver_p02_gpio_11" cx="36" cy="144" r="4.5" fill="#fff" stroke="#cfd6df" stroke-width="1.6" />
<circle class="port" data-system-port-id="radio_transceiver_p03_gpio_12" cx="72" cy="144" r="4.5" fill="#fff" stroke="#cfd6df" stroke-width="1.6" />
<circle class="port" data-system-port-id="radio_transceiver_p04_gpio_13" cx="108" cy="144" r="4.5" fill="#fff" stroke="#cfd6df" stroke-width="1.6" />
</g>
<g class="block" data-system-block-id="radio_level_shifter" transform="translate(560,44)">
<rect class="block-rect" width="144" height="136" rx="14" fill="#fff" stroke="#2b3543" stroke-width="1.6" />
<rect class="numbadge" x="9" y="9" width="22" height="18" rx="5" fill="#f1f4f8" stroke="#cfd6df" stroke-width="1" />
<text class="numbadge-t" x="20" y="22" font-family="Inter, sans-serif" font-size="11" font-weight="700" fill="#5a6573" text-anchor="middle">2</text>
<circle class="status-dot" cx="129" cy="18" r="7" fill="#22c55e" stroke="#fff" stroke-width="1.5" />
<path d="M 126 18 l 2 2 l 3.5 -4" stroke="#fff" stroke-width="1.6" fill="none" stroke-linecap="round" stroke-linejoin="round" />
<g transform="translate(49,38) scale(1.917)" fill="none" stroke="#1f2733" stroke-width="1.7" stroke-linecap="round" stroke-linejoin="round"><path d="M5 6 12 11 5 16z"/><path d="M19 8 12 13 19 18z"/></g>
<text class="block-label" x="72" y="123" font-family="Inter, sans-serif" font-size="12.5" font-weight="600" fill="#1f2733" text-anchor="middle">Level Shifter</text>
<circle class="port" data-system-port-id="radio_level_shifter_a1" cx="0" cy="34" r="4.5" fill="#fff" stroke="#cfd6df" stroke-width="1.6" />
<circle class="port" data-system-port-id="radio_level_shifter_a2" cx="0" cy="68" r="4.5" fill="#fff" stroke="#cfd6df" stroke-width="1.6" />
<circle class="port" data-system-port-id="radio_level_shifter_v1_8" cx="0" cy="102" r="4.5" fill="#fff" stroke="#cfd6df" stroke-width="1.6" />
<circle class="port" data-system-port-id="radio_level_shifter_b1" cx="144" cy="45.333" r="4.5" fill="#fff" stroke="#cfd6df" stroke-width="1.6" />
<circle class="port" data-system-port-id="radio_level_shifter_b2" cx="144" cy="90.667" r="4.5" fill="#fff" stroke="#cfd6df" stroke-width="1.6" />
<circle class="port" data-system-port-id="radio_level_shifter_v3_3" cx="72" cy="0" r="4.5" fill="#fff" stroke="#cfd6df" stroke-width="1.6" />
</g>
<g class="block" data-system-block-id="ble_module" transform="translate(938,151)">
<rect class="block-rect" width="300" height="218" rx="14" fill="#fff" stroke="#2b3543" stroke-width="1.6" />
<rect class="numbadge" x="9" y="9" width="22" height="18" rx="5" fill="#f1f4f8" stroke="#cfd6df" stroke-width="1" />
<text class="numbadge-t" x="20" y="22" font-family="Inter, sans-serif" font-size="11" font-weight="700" fill="#5a6573" text-anchor="middle">3</text>
<circle class="status-dot" cx="285" cy="18" r="7" fill="#22c55e" stroke="#fff" stroke-width="1.5" />
<path d="M 282 18 l 2 2 l 3.5 -4" stroke="#fff" stroke-width="1.6" fill="none" stroke-linecap="round" stroke-linejoin="round" />
<g transform="translate(127,79) scale(1.917)" fill="none" stroke="#1f2733" stroke-width="1.7" stroke-linecap="round" stroke-linejoin="round"><circle cx="12" cy="9" r="2"/><path d="M12 11v9M7.5 4.5a6.4 6.4 0 0 1 9 0M5 7a9.9 9.9 0 0 1 14 0"/></g>
<text class="block-label" x="150" y="205" font-family="Inter, sans-serif" font-size="12.5" font-weight="600" fill="#1f2733" text-anchor="middle">BLE Module</text>
<circle class="port" data-system-port-id="ble_module_dio0" cx="0" cy="43.6" r="4.5" fill="#fff" stroke="#cfd6df" stroke-width="1.6" />
<circle class="port" data-system-port-id="ble_module_dio1" cx="0" cy="87.2" r="4.5" fill="#fff" stroke="#cfd6df" stroke-width="1.6" />
<circle class="port" data-system-port-id="ble_module_dio4" cx="0" cy="130.8" r="4.5" fill="#fff" stroke="#cfd6df" stroke-width="1.6" />
<circle class="port" data-system-port-id="ble_module_dio5" cx="0" cy="174.4" r="4.5" fill="#fff" stroke="#cfd6df" stroke-width="1.6" />
<circle class="port" data-system-port-id="ble_module_dio2" cx="300" cy="72.667" r="4.5" fill="#fff" stroke="#cfd6df" stroke-width="1.6" />
<circle class="port" data-system-port-id="ble_module_dio3" cx="300" cy="145.333" r="4.5" fill="#fff" stroke="#cfd6df" stroke-width="1.6" />
<circle class="port" data-system-port-id="ble_module_wmcu_vdd" cx="100" cy="218" r="4.5" fill="#fff" stroke="#cfd6df" stroke-width="1.6" />
<circle class="port" data-system-port-id="ble_module_dio7" cx="200" cy="218" r="4.5" fill="#fff" stroke="#cfd6df" stroke-width="1.6" />
</g>
<g class="block" data-system-block-id="flash" transform="translate(1326,148)">
<rect class="block-rect" width="144" height="144" rx="14" fill="#fff" stroke="#2b3543" stroke-width="1.6" />
<rect class="numbadge" x="9" y="9" width="22" height="18" rx="5" fill="#f1f4f8" stroke="#cfd6df" stroke-width="1" />
<text class="numbadge-t" x="20" y="22" font-family="Inter, sans-serif" font-size="11" font-weight="700" fill="#5a6573" text-anchor="middle">4</text>
<circle class="status-dot" cx="129" cy="18" r="7" fill="#22c55e" stroke="#fff" stroke-width="1.5" />
<path d="M 126 18 l 2 2 l 3.5 -4" stroke="#fff" stroke-width="1.6" fill="none" stroke-linecap="round" stroke-linejoin="round" />
<g transform="translate(49,42) scale(1.917)" fill="none" stroke="#1f2733" stroke-width="1.7" stroke-linecap="round" stroke-linejoin="round"><rect x="5" y="6" width="14" height="12" rx="1.5"/><path d="M8 6V3.5M12 6V3.5M16 6V3.5M8 18v2.5M12 18v2.5M16 18v2.5M9 10h6M9 13h6"/></g>
<text class="block-label" x="72" y="131" font-family="Inter, sans-serif" font-size="12.5" font-weight="600" fill="#1f2733" text-anchor="middle">Flash</text>
<circle class="port" data-system-port-id="flash_qspi_clk" cx="0" cy="48" r="4.5" fill="#fff" stroke="#cfd6df" stroke-width="1.6" />
<circle class="port" data-system-port-id="flash_qspi_ss" cx="0" cy="96" r="4.5" fill="#fff" stroke="#cfd6df" stroke-width="1.6" />
<circle class="port" data-system-port-id="flash_vcc" cx="72" cy="144" r="4.5" fill="#fff" stroke="#cfd6df" stroke-width="1.6" />
</g>
<g class="block" data-system-block-id="nfc" transform="translate(60,350)">
<rect class="block-rect" width="144" height="144" rx="14" fill="#fff" stroke="#2b3543" stroke-width="1.6" />
<rect class="numbadge" x="9" y="9" width="22" height="18" rx="5" fill="#f1f4f8" stroke="#cfd6df" stroke-width="1" />
<text class="numbadge-t" x="20" y="22" font-family="Inter, sans-serif" font-size="11" font-weight="700" fill="#5a6573" text-anchor="middle">5</text>
<circle class="status-dot" cx="129" cy="18" r="7" fill="#22c55e" stroke="#fff" stroke-width="1.5" />
<path d="M 126 18 l 2 2 l 3.5 -4" stroke="#fff" stroke-width="1.6" fill="none" stroke-linecap="round" stroke-linejoin="round" />
<g transform="translate(49,42) scale(1.917)" fill="none" stroke="#1f2733" stroke-width="1.7" stroke-linecap="round" stroke-linejoin="round"><rect x="6" y="6" width="12" height="12" rx="2"/><path d="M9 15V9l6 6V9"/></g>
<text class="block-label" x="72" y="131" font-family="Inter, sans-serif" font-size="12.5" font-weight="600" fill="#1f2733" text-anchor="middle">NFC</text>
<circle class="port" data-system-port-id="nfc_en" cx="36" cy="0" r="4.5" fill="#fff" stroke="#cfd6df" stroke-width="1.6" />
<circle class="port" data-system-port-id="nfc_data_clk" cx="72" cy="0" r="4.5" fill="#fff" stroke="#cfd6df" stroke-width="1.6" />
<circle class="port" data-system-port-id="nfc_irq" cx="108" cy="0" r="4.5" fill="#fff" stroke="#cfd6df" stroke-width="1.6" />
<circle class="port" data-system-port-id="nfc_mod" cx="144" cy="36" r="4.5" fill="#fff" stroke="#cfd6df" stroke-width="1.6" />
<circle class="port" data-system-port-id="nfc_mosi" cx="144" cy="72" r="4.5" fill="#fff" stroke="#cfd6df" stroke-width="1.6" />
<circle class="port" data-system-port-id="nfc_miso" cx="144" cy="108" r="4.5" fill="#fff" stroke="#cfd6df" stroke-width="1.6" />
<circle class="port" data-system-port-id="nfc_vin_3_v3" cx="48" cy="144" r="4.5" fill="#fff" stroke="#cfd6df" stroke-width="1.6" />
<circle class="port" data-system-port-id="nfc_sys_clk" cx="96" cy="144" r="4.5" fill="#fff" stroke="#cfd6df" stroke-width="1.6" />
</g>
<g class="block" data-system-block-id="nfc_level_shifter" transform="translate(560,344)">
<rect class="block-rect" width="144" height="136" rx="14" fill="#fff" stroke="#2b3543" stroke-width="1.6" />
<rect class="numbadge" x="9" y="9" width="22" height="18" rx="5" fill="#f1f4f8" stroke="#cfd6df" stroke-width="1" />
<text class="numbadge-t" x="20" y="22" font-family="Inter, sans-serif" font-size="11" font-weight="700" fill="#5a6573" text-anchor="middle">6</text>
<circle class="status-dot" cx="129" cy="18" r="7" fill="#22c55e" stroke="#fff" stroke-width="1.5" />
<path d="M 126 18 l 2 2 l 3.5 -4" stroke="#fff" stroke-width="1.6" fill="none" stroke-linecap="round" stroke-linejoin="round" />
<g transform="translate(49,38) scale(1.917)" fill="none" stroke="#1f2733" stroke-width="1.7" stroke-linecap="round" stroke-linejoin="round"><path d="M5 6 12 11 5 16z"/><path d="M19 8 12 13 19 18z"/></g>
<text class="block-label" x="72" y="123" font-family="Inter, sans-serif" font-size="12.5" font-weight="600" fill="#1f2733" text-anchor="middle">Signal Level Shift</text>
<circle class="port" data-system-port-id="nfc_level_shifter_oe" cx="0" cy="27.2" r="4.5" fill="#fff" stroke="#cfd6df" stroke-width="1.6" />
<circle class="port" data-system-port-id="nfc_level_shifter_a1" cx="0" cy="54.4" r="4.5" fill="#fff" stroke="#cfd6df" stroke-width="1.6" />
<circle class="port" data-system-port-id="nfc_level_shifter_a2" cx="0" cy="81.6" r="4.5" fill="#fff" stroke="#cfd6df" stroke-width="1.6" />
<circle class="port" data-system-port-id="nfc_level_shifter_v1_8" cx="0" cy="108.8" r="4.5" fill="#fff" stroke="#cfd6df" stroke-width="1.6" />
<circle class="port" data-system-port-id="nfc_level_shifter_b1" cx="144" cy="45.333" r="4.5" fill="#fff" stroke="#cfd6df" stroke-width="1.6" />
<circle class="port" data-system-port-id="nfc_level_shifter_b2" cx="144" cy="90.667" r="4.5" fill="#fff" stroke="#cfd6df" stroke-width="1.6" />
<circle class="port" data-system-port-id="nfc_level_shifter_v3_3" cx="72" cy="136" r="4.5" fill="#fff" stroke="#cfd6df" stroke-width="1.6" />
</g>
<g class="block" data-system-block-id="authenticator" transform="translate(320,494)">
<rect class="block-rect" width="144" height="136" rx="14" fill="#fff" stroke="#2b3543" stroke-width="1.6" />
<rect class="numbadge" x="9" y="9" width="22" height="18" rx="5" fill="#f1f4f8" stroke="#cfd6df" stroke-width="1" />
<text class="numbadge-t" x="20" y="22" font-family="Inter, sans-serif" font-size="11" font-weight="700" fill="#5a6573" text-anchor="middle">7</text>
<circle class="status-dot" cx="129" cy="18" r="7" fill="#22c55e" stroke="#fff" stroke-width="1.5" />
<path d="M 126 18 l 2 2 l 3.5 -4" stroke="#fff" stroke-width="1.6" fill="none" stroke-linecap="round" stroke-linejoin="round" />
<g transform="translate(49,38) scale(1.917)" fill="none" stroke="#1f2733" stroke-width="1.7" stroke-linecap="round" stroke-linejoin="round"><rect x="6" y="6" width="12" height="12" rx="1.5"/><rect x="9.5" y="9.5" width="5" height="5" rx=".6"/><path d="M9 6V3M15 6V3M9 21v-3M15 21v-3M6 9H3M6 15H3M21 9h-3M21 15h-3"/></g>
<text class="block-label" x="72" y="123" font-family="Inter, sans-serif" font-size="12.5" font-weight="600" fill="#1f2733" text-anchor="middle">Authenticator</text>
<circle class="port" data-system-port-id="authenticator_pa0" cx="0" cy="68" r="4.5" fill="#fff" stroke="#cfd6df" stroke-width="1.6" />
<circle class="port" data-system-port-id="authenticator_vdd" cx="144" cy="68" r="4.5" fill="#fff" stroke="#cfd6df" stroke-width="1.6" />
</g>
<g class="block" data-system-block-id="pmic" transform="translate(1016,710)">
<rect class="block-rect" width="144" height="144" rx="14" fill="#fff" stroke="#2b3543" stroke-width="1.6" />
<rect class="numbadge" x="9" y="9" width="22" height="18" rx="5" fill="#f1f4f8" stroke="#cfd6df" stroke-width="1" />
<text class="numbadge-t" x="20" y="22" font-family="Inter, sans-serif" font-size="11" font-weight="700" fill="#5a6573" text-anchor="middle">8</text>
<circle class="status-dot" cx="129" cy="18" r="7" fill="#22c55e" stroke="#fff" stroke-width="1.5" />
<path d="M 126 18 l 2 2 l 3.5 -4" stroke="#fff" stroke-width="1.6" fill="none" stroke-linecap="round" stroke-linejoin="round" />
<g transform="translate(49,42) scale(1.917)" fill="none" stroke="#1f2733" stroke-width="1.7" stroke-linecap="round" stroke-linejoin="round"><rect x="5" y="7" width="14" height="10" rx="2"/><path d="M9 7V4M15 7V4M10 12l1.6 0M14 10v4"/><circle cx="11" cy="12" r=".4"/></g>
<text class="block-label" x="72" y="131" font-family="Inter, sans-serif" font-size="12.5" font-weight="600" fill="#1f2733" text-anchor="middle">PMIC</text>
<circle class="port" data-system-port-id="pmic_dcdc2_out" cx="0" cy="72" r="4.5" fill="#fff" stroke="#cfd6df" stroke-width="1.6" />
<circle class="port" data-system-port-id="pmic_dcdc1_out" cx="48" cy="0" r="4.5" fill="#fff" stroke="#cfd6df" stroke-width="1.6" />
<circle class="port" data-system-port-id="pmic_gpo2" cx="96" cy="0" r="4.5" fill="#fff" stroke="#cfd6df" stroke-width="1.6" />
</g>
</g>
</svg>