<svg width="474" height="200" viewBox="0 0 474 200" xmlns="http://www.w3.org/2000/svg">
<defs>
<pattern id="dots" width="22" height="22" patternUnits="userSpaceOnUse">
<circle cx="1.4" cy="1.4" r="1.4" fill="#e6eaef" />
</pattern>
</defs>
<rect class="grid-bg" x="0" y="0" width="474" height="200" fill="url(#dots)" />
<g transform="translate(-8,10)">
<g data-system-connection-id="spi">
<path class="wire" d="M 184 90 L 199 90 Q 208 90 217 90 L 273 90 Q 282 90 291 90 L 306 90" fill="none" stroke="#9aa4b0" stroke-width="2.6" stroke-linejoin="round" stroke-linecap="round" />
<rect class="wlabel-bg" x="228.1" y="81" width="33.8" height="18" rx="5" fill="#fff" stroke="#e3e8ee" stroke-width="1" />
<text class="wlabel-t" x="245" y="90.5" font-family="JetBrains Mono, monospace" font-size="10.5" font-weight="600" fill="#5a6573" text-anchor="middle" dominant-baseline="middle">SPI</text>
</g>
<g class="block" data-system-block-id="mcu" transform="translate(56,38)">
<rect class="block-rect" width="128" height="104" rx="14" fill="#fff" stroke="#2b3543" stroke-width="1.6" />
<rect class="numbadge" x="9" y="9" width="22" height="18" rx="5" fill="#f1f4f8" stroke="#cfd6df" stroke-width="1" />
<text class="numbadge-t" x="20" y="22" font-family="Inter, sans-serif" font-size="11" font-weight="700" fill="#5a6573" text-anchor="middle">1</text>
<circle class="status-dot" cx="113" cy="18" r="7" fill="#22c55e" stroke="#fff" stroke-width="1.5" />
<path d="M 110 18 l 2 2 l 3.5 -4" stroke="#fff" stroke-width="1.6" fill="none" stroke-linecap="round" stroke-linejoin="round" />
<rect x="50.688" y="31.688" width="26.624" height="26.624" rx="5" fill="none" stroke="#1f2733" stroke-width="2" />
<path d="M 57.344 45 h 13.312 M 64 38.344 v 13.312" stroke="#1f2733" stroke-width="1.8" stroke-linecap="round" />
<text class="block-label" x="64" y="91" font-family="Inter, sans-serif" font-size="12.5" font-weight="600" fill="#1f2733" text-anchor="middle">MCU</text>
<circle class="port" data-system-port-id="mcu_r_0" cx="128" cy="52" r="4.5" fill="#fff" stroke="#cfd6df" stroke-width="1.6" />
</g>
<g class="block" data-system-block-id="radio" transform="translate(306,38)">
<rect class="block-rect" width="128" height="104" rx="14" fill="#fff" stroke="#2b3543" stroke-width="1.6" />
<rect class="numbadge" x="9" y="9" width="22" height="18" rx="5" fill="#f1f4f8" stroke="#cfd6df" stroke-width="1" />
<text class="numbadge-t" x="20" y="22" font-family="Inter, sans-serif" font-size="11" font-weight="700" fill="#5a6573" text-anchor="middle">2</text>
<circle class="status-dot" cx="113" cy="18" r="7" fill="#22c55e" stroke="#fff" stroke-width="1.5" />
<path d="M 110 18 l 2 2 l 3.5 -4" stroke="#fff" stroke-width="1.6" fill="none" stroke-linecap="round" stroke-linejoin="round" />
<path d="M 64 53.32 V 40.008" stroke="#1f2733" stroke-width="2" stroke-linecap="round" />
<path d="M 56.512 38.76 Q 64 31.688 71.488 38.76" fill="none" stroke="#1f2733" stroke-width="2" stroke-linecap="round" />
<path d="M 51.52 34.6 Q 64 25.032 76.48 34.6" fill="none" stroke="#1f2733" stroke-width="1.8" stroke-linecap="round" />
<text class="block-label" x="64" y="91" font-family="Inter, sans-serif" font-size="12.5" font-weight="600" fill="#1f2733" text-anchor="middle">Radio</text>
<circle class="port" data-system-port-id="radio_l_0" cx="0" cy="52" r="4.5" fill="#fff" stroke="#cfd6df" stroke-width="1.6" />
</g>
</g>
</svg>