<svg width="723" height="298" viewBox="0 0 723 298" xmlns="http://www.w3.org/2000/svg">
<defs>
<pattern id="dots" width="22" height="22" patternUnits="userSpaceOnUse">
<circle cx="1.4" cy="1.4" r="1.4" fill="#e6eaef" />
</pattern>
</defs>
<rect class="grid-bg" x="0" y="0" width="723" height="298" fill="url(#dots)" />
<g transform="translate(22,48)">
<g data-system-connection-id="battery_to_pmic">
<path class="wire" d="M 154 150 L 169 150 Q 178 150 187 150 L 223 150 Q 232 150 241 150 L 256 150" fill="none" stroke="#9aa4b0" stroke-width="2.6" stroke-linejoin="round" stroke-linecap="round" />
<rect class="wlabel-bg" x="188.1" y="141" width="33.8" height="18" rx="5" fill="#fff" stroke="#e3e8ee" stroke-width="1" />
<text class="wlabel-t" x="205" y="150.5" font-family="JetBrains Mono, monospace" font-size="10.5" font-weight="600" fill="#5a6573" text-anchor="middle" dominant-baseline="middle">VIN</text>
</g>
<g data-system-connection-id="pmic_to_ble">
<path class="wire" d="M 384 150 L 399 150 Q 408 150 417 150 L 560 150 Q 565 150 565 145 L 565 140" fill="none" stroke="#9aa4b0" stroke-width="2.6" stroke-linejoin="round" stroke-linecap="round" />
<rect class="wlabel-bg" x="462.6" y="141" width="33.8" height="18" rx="5" fill="#fff" stroke="#e3e8ee" stroke-width="1" />
<text class="wlabel-t" x="479.5" y="150.5" font-family="JetBrains Mono, monospace" font-size="10.5" font-weight="600" fill="#5a6573" text-anchor="middle" dominant-baseline="middle">3V3</text>
</g>
<g class="block" data-system-block-id="battery" transform="translate(26,98)">
<rect class="block-rect" width="128" height="104" rx="14" fill="#fff" stroke="#2b3543" stroke-width="1.6" />
<rect class="numbadge" x="9" y="9" width="22" height="18" rx="5" fill="#f1f4f8" stroke="#cfd6df" stroke-width="1" />
<text class="numbadge-t" x="20" y="22" font-family="Inter, sans-serif" font-size="11" font-weight="700" fill="#5a6573" text-anchor="middle">1</text>
<circle class="status-dot" cx="113" cy="18" r="7" fill="#22c55e" stroke="#fff" stroke-width="1.5" />
<path d="M 110 18 l 2 2 l 3.5 -4" stroke="#fff" stroke-width="1.6" fill="none" stroke-linecap="round" stroke-linejoin="round" />
<rect x="50.688" y="36.68" width="24.128" height="16.64" rx="3" fill="none" stroke="#1f2733" stroke-width="2" />
<rect x="74.816" y="41.672" width="3.328" height="6.656" rx="1" fill="#1f2733" />
<text class="block-label" x="64" y="91" font-family="Inter, sans-serif" font-size="12.5" font-weight="600" fill="#1f2733" text-anchor="middle">Battery</text>
<circle class="port" data-system-port-id="battery_r_0" cx="128" cy="52" r="4.5" fill="#fff" stroke="#cfd6df" stroke-width="1.6" />
</g>
<g class="block" data-system-block-id="pmic" transform="translate(256,98)">
<rect class="block-rect" width="128" height="104" rx="14" fill="#fff" stroke="#2b3543" stroke-width="1.6" />
<rect class="numbadge" x="9" y="9" width="22" height="18" rx="5" fill="#f1f4f8" stroke="#cfd6df" stroke-width="1" />
<text class="numbadge-t" x="20" y="22" font-family="Inter, sans-serif" font-size="11" font-weight="700" fill="#5a6573" text-anchor="middle">2</text>
<circle class="status-dot" cx="113" cy="18" r="7" fill="#22c55e" stroke="#fff" stroke-width="1.5" />
<path d="M 110 18 l 2 2 l 3.5 -4" stroke="#fff" stroke-width="1.6" fill="none" stroke-linecap="round" stroke-linejoin="round" />
<circle cx="64" cy="45" r="11.648" fill="none" stroke="#1f2733" stroke-width="2" />
<path d="M 64 31.688 v 11.648" stroke="#1f2733" stroke-width="2.4" stroke-linecap="round" />
<text class="block-label" x="64" y="91" font-family="Inter, sans-serif" font-size="12.5" font-weight="600" fill="#1f2733" text-anchor="middle">PMIC</text>
<circle class="port" data-system-port-id="pmic_l_0" cx="0" cy="52" r="4.5" fill="#fff" stroke="#cfd6df" stroke-width="1.6" />
<circle class="port" data-system-port-id="pmic_r_0" cx="128" cy="52" r="4.5" fill="#fff" stroke="#cfd6df" stroke-width="1.6" />
</g>
<g class="block" data-system-block-id="ble" transform="translate(477,0)">
<rect class="block-rect" width="176" height="140" rx="14" fill="#fff" stroke="#2b3543" stroke-width="1.6" />
<rect class="numbadge" x="9" y="9" width="22" height="18" rx="5" fill="#f1f4f8" stroke="#cfd6df" stroke-width="1" />
<text class="numbadge-t" x="20" y="22" font-family="Inter, sans-serif" font-size="11" font-weight="700" fill="#5a6573" text-anchor="middle">3</text>
<circle class="status-dot" cx="161" cy="18" r="7" fill="#22c55e" stroke="#fff" stroke-width="1.5" />
<path d="M 158 18 l 2 2 l 3.5 -4" stroke="#fff" stroke-width="1.6" fill="none" stroke-linecap="round" stroke-linejoin="round" />
<rect x="73.28" y="48.28" width="29.44" height="29.44" rx="5" fill="none" stroke="#1f2733" stroke-width="2" />
<path d="M 80.64 63 h 14.72 M 88 55.64 v 14.72" stroke="#1f2733" stroke-width="1.8" stroke-linecap="round" />
<text class="block-label" x="88" y="127" font-family="Inter, sans-serif" font-size="12.5" font-weight="600" fill="#1f2733" text-anchor="middle">BLE Module</text>
<circle class="port" data-system-port-id="ble_b_0" cx="88" cy="140" r="4.5" fill="#fff" stroke="#cfd6df" stroke-width="1.6" />
</g>
</g>
</svg>