<svg width="723" height="298" viewBox="0 0 723 298" xmlns="http://www.w3.org/2000/svg">
<defs>
<pattern id="dots" width="22" height="22" patternUnits="userSpaceOnUse">
<circle cx="1.4" cy="1.4" r="1.4" fill="#e6eaef" />
</pattern>
</defs>
<rect class="grid-bg" x="0" y="0" width="723" height="298" fill="url(#dots)" />
<g transform="translate(22,48)">
<g data-system-connection-id="system_connection_0">
<path class="wire" d="M 154 150 L 256 150" fill="none" stroke="#9aa4b0" stroke-width="2.6" stroke-linejoin="round" stroke-linecap="round" />
<rect class="wlabel-bg" x="188.1" y="141" width="33.8" height="18" rx="5" fill="#fff" stroke="#e3e8ee" stroke-width="1" />
<text class="wlabel-t" x="205" y="150.5" font-family="JetBrains Mono, monospace" font-size="10.5" font-weight="600" fill="#5a6573" text-anchor="middle" dominant-baseline="middle">VIN</text>
</g>
<g data-system-connection-id="system_connection_1">
<path class="wire" d="M 384 150 L 434 150 Q 441 150 441 157 L 441 157 Q 441 164 448 164 L 556 164 Q 565 164 565 155 L 565 140" fill="none" stroke="#9aa4b0" stroke-width="2.6" stroke-linejoin="round" stroke-linecap="round" />
<rect class="wlabel-bg" x="486.1" y="155" width="33.8" height="18" rx="5" fill="#fff" stroke="#e3e8ee" stroke-width="1" />
<text class="wlabel-t" x="503" y="164.5" font-family="JetBrains Mono, monospace" font-size="10.5" font-weight="600" fill="#5a6573" text-anchor="middle" dominant-baseline="middle">3V3</text>
</g>
<g class="block" data-system-block-id="system_block_0" transform="translate(26,98)">
<rect class="block-rect" width="128" height="104" rx="14" fill="#fff" stroke="#2b3543" stroke-width="1.6" />
<rect class="numbadge" x="9" y="9" width="22" height="18" rx="5" fill="#f1f4f8" stroke="#cfd6df" stroke-width="1" />
<text class="numbadge-t" x="20" y="22" font-family="Inter, sans-serif" font-size="11" font-weight="700" fill="#5a6573" text-anchor="middle">1</text>
<circle class="status-dot" cx="113" cy="18" r="7" fill="#22c55e" stroke="#fff" stroke-width="1.5" />
<path d="M 110 18 l 2 2 l 3.5 -4" stroke="#fff" stroke-width="1.6" fill="none" stroke-linecap="round" stroke-linejoin="round" />
<g transform="translate(43.2,24.2) scale(1.733)" fill="none" stroke="#1f2733" stroke-width="1.7" stroke-linecap="round" stroke-linejoin="round"><rect x="3" y="8" width="14" height="9" rx="1.5"/><path d="M17 11h2v3h-2M6 12.5h3M7.5 11v3"/></g>
<text class="block-label" x="64" y="91" font-family="Inter, sans-serif" font-size="12.5" font-weight="600" fill="#1f2733" text-anchor="middle">Battery</text>
<circle class="port" data-system-port-id="system_port_0" cx="128" cy="52" r="4.5" fill="#fff" stroke="#cfd6df" stroke-width="1.6" />
</g>
<g class="block" data-system-block-id="system_block_1" transform="translate(256,98)">
<rect class="block-rect" width="128" height="104" rx="14" fill="#fff" stroke="#2b3543" stroke-width="1.6" />
<rect class="numbadge" x="9" y="9" width="22" height="18" rx="5" fill="#f1f4f8" stroke="#cfd6df" stroke-width="1" />
<text class="numbadge-t" x="20" y="22" font-family="Inter, sans-serif" font-size="11" font-weight="700" fill="#5a6573" text-anchor="middle">2</text>
<circle class="status-dot" cx="113" cy="18" r="7" fill="#22c55e" stroke="#fff" stroke-width="1.5" />
<path d="M 110 18 l 2 2 l 3.5 -4" stroke="#fff" stroke-width="1.6" fill="none" stroke-linecap="round" stroke-linejoin="round" />
<g transform="translate(43.2,24.2) scale(1.733)" fill="none" stroke="#1f2733" stroke-width="1.7" stroke-linecap="round" stroke-linejoin="round"><rect x="5" y="7" width="14" height="10" rx="2"/><path d="M9 7V4M15 7V4M10 12l1.6 0M14 10v4"/><circle cx="11" cy="12" r=".4"/></g>
<text class="block-label" x="64" y="91" font-family="Inter, sans-serif" font-size="12.5" font-weight="600" fill="#1f2733" text-anchor="middle">PMIC</text>
<circle class="port" data-system-port-id="system_port_1" cx="0" cy="52" r="4.5" fill="#fff" stroke="#cfd6df" stroke-width="1.6" />
<circle class="port" data-system-port-id="system_port_2" cx="128" cy="52" r="4.5" fill="#fff" stroke="#cfd6df" stroke-width="1.6" />
</g>
<g class="block" data-system-block-id="system_block_2" transform="translate(477,0)">
<rect class="block-rect" width="176" height="140" rx="14" fill="#fff" stroke="#2b3543" stroke-width="1.6" />
<rect class="numbadge" x="9" y="9" width="22" height="18" rx="5" fill="#f1f4f8" stroke="#cfd6df" stroke-width="1" />
<text class="numbadge-t" x="20" y="22" font-family="Inter, sans-serif" font-size="11" font-weight="700" fill="#5a6573" text-anchor="middle">3</text>
<circle class="status-dot" cx="161" cy="18" r="7" fill="#22c55e" stroke="#fff" stroke-width="1.5" />
<path d="M 158 18 l 2 2 l 3.5 -4" stroke="#fff" stroke-width="1.6" fill="none" stroke-linecap="round" stroke-linejoin="round" />
<g transform="translate(65,40) scale(1.917)" fill="none" stroke="#1f2733" stroke-width="1.7" stroke-linecap="round" stroke-linejoin="round"><rect x="6" y="6" width="12" height="12" rx="1.5"/><rect x="9.5" y="9.5" width="5" height="5" rx=".6"/><path d="M9 6V3M15 6V3M9 21v-3M15 21v-3M6 9H3M6 15H3M21 9h-3M21 15h-3"/></g>
<text class="block-label" x="88" y="127" font-family="Inter, sans-serif" font-size="12.5" font-weight="600" fill="#1f2733" text-anchor="middle">BLE Module</text>
<circle class="port" data-system-port-id="system_port_3" cx="88" cy="140" r="4.5" fill="#fff" stroke="#cfd6df" stroke-width="1.6" />
</g>
</g>
</svg>