<svg width="1518" height="860" viewBox="0 0 1518 860" xmlns="http://www.w3.org/2000/svg">
<defs>
<pattern id="dots" width="22" height="22" patternUnits="userSpaceOnUse">
<circle cx="1.4" cy="1.4" r="1.4" fill="#e6eaef" />
</pattern>
</defs>
<rect class="grid-bg" x="0" y="0" width="1518" height="860" fill="url(#dots)" />
<g transform="translate(12,18)">
<g data-system-connection-id="w_9">
<path class="wire" d="M 188 94.66666666666666 L 527 94.66666666666666 Q 536 94.66666666666666 536 85.66666666666666 L 536 73.66666666666666 Q 536 64.66666666666666 545 64.66666666666666 L 560 64.66666666666666" fill="none" stroke="#9aa4b0" stroke-width="2.6" stroke-linejoin="round" stroke-linecap="round" />
<rect class="wlabel-bg" x="345.1" y="85.667" width="33.8" height="18" rx="5" fill="#fff" stroke="#e3e8ee" stroke-width="1" />
<text class="wlabel-t" x="362" y="95.167" font-family="JetBrains Mono, monospace" font-size="10.5" font-weight="600" fill="#5a6573" text-anchor="middle" dominant-baseline="middle">SPI</text>
</g>
<g data-system-connection-id="w_10">
<path class="wire" d="M 188 129.33333333333331 L 527 129.33333333333331 Q 536 129.33333333333331 536 120.33333333333331 L 536 108.33333333333333 Q 536 99.33333333333333 545 99.33333333333333 L 560 99.33333333333333" fill="none" stroke="#9aa4b0" stroke-width="2.6" stroke-linejoin="round" stroke-linecap="round" />
<rect class="wlabel-bg" x="341.8" y="120.333" width="40.4" height="18" rx="5" fill="#fff" stroke="#e3e8ee" stroke-width="1" />
<text class="wlabel-t" x="362" y="129.833" font-family="JetBrains Mono, monospace" font-size="10.5" font-weight="600" fill="#5a6573" text-anchor="middle" dominant-baseline="middle">GPIO</text>
</g>
<g data-system-connection-id="w_11">
<path class="wire" d="M 688 64.66666666666666 L 907 64.66666666666666 Q 916 64.66666666666666 916 73.66666666666666 L 916 176 Q 916 185 925 185 L 940 185" fill="none" stroke="#9aa4b0" stroke-width="2.6" stroke-linejoin="round" stroke-linecap="round" />
<rect class="wlabel-bg" x="785.1" y="55.667" width="33.8" height="18" rx="5" fill="#fff" stroke="#e3e8ee" stroke-width="1" />
<text class="wlabel-t" x="802" y="65.167" font-family="JetBrains Mono, monospace" font-size="10.5" font-weight="600" fill="#5a6573" text-anchor="middle" dominant-baseline="middle">SPI</text>
</g>
<g data-system-connection-id="w_12">
<path class="wire" d="M 688 99.33333333333333 L 805 99.33333333333333 Q 814 99.33333333333333 814 108.33333333333333 L 814 211 Q 814 220 823 220 L 940 220" fill="none" stroke="#9aa4b0" stroke-width="2.6" stroke-linejoin="round" stroke-linecap="round" />
<rect class="wlabel-bg" x="730.8" y="90.333" width="40.4" height="18" rx="5" fill="#fff" stroke="#e3e8ee" stroke-width="1" />
<text class="wlabel-t" x="751" y="99.833" font-family="JetBrains Mono, monospace" font-size="10.5" font-weight="600" fill="#5a6573" text-anchor="middle" dominant-baseline="middle">GPIO</text>
</g>
<g data-system-connection-id="w_13">
<path class="wire" d="M 1116 196.66666666666666 L 1300 196.66666666666666 Q 1306 196.66666666666666 1306 190.66666666666666 L 1306 190.66666666666666 Q 1306 184.66666666666666 1312 184.66666666666666 L 1330 184.66666666666666" fill="none" stroke="#9aa4b0" stroke-width="2.6" stroke-linejoin="round" stroke-linecap="round" />
<rect class="wlabel-bg" x="1194.1" y="187.667" width="33.8" height="18" rx="5" fill="#fff" stroke="#e3e8ee" stroke-width="1" />
<text class="wlabel-t" x="1211" y="197.167" font-family="JetBrains Mono, monospace" font-size="10.5" font-weight="600" fill="#5a6573" text-anchor="middle" dominant-baseline="middle">SPI</text>
</g>
<g data-system-connection-id="w_14">
<path class="wire" d="M 1116 243.33333333333331 L 1297 243.33333333333331 Q 1306 243.33333333333331 1306 234.33333333333331 L 1306 228.33333333333331 Q 1306 219.33333333333331 1315 219.33333333333331 L 1330 219.33333333333331" fill="none" stroke="#9aa4b0" stroke-width="2.6" stroke-linejoin="round" stroke-linecap="round" />
<rect class="wlabel-bg" x="1190.8" y="234.333" width="40.4" height="18" rx="5" fill="#fff" stroke="#e3e8ee" stroke-width="1" />
<text class="wlabel-t" x="1211" y="243.833" font-family="JetBrains Mono, monospace" font-size="10.5" font-weight="600" fill="#5a6573" text-anchor="middle" dominant-baseline="middle">GPIO</text>
</g>
<g data-system-connection-id="w_15">
<path class="wire" d="M 188 356 L 535.3333333333334 356 Q 536 356 536 355.33333333333337 L 536 355.33333333333337 Q 536 354.6666666666667 536.6666666666666 354.6666666666667 L 560 354.6666666666667" fill="none" stroke="#9aa4b0" stroke-width="2.6" stroke-linejoin="round" stroke-linecap="round" />
<rect class="wlabel-bg" x="341.8" y="347" width="40.4" height="18" rx="5" fill="#fff" stroke="#e3e8ee" stroke-width="1" />
<text class="wlabel-t" x="362" y="356.5" font-family="JetBrains Mono, monospace" font-size="10.5" font-weight="600" fill="#5a6573" text-anchor="middle" dominant-baseline="middle">GPIO</text>
</g>
<g data-system-connection-id="w_16">
<path class="wire" d="M 188 382 L 208.33333333333334 382 Q 212 382 212 385.66666666666663 L 212 385.66666666666663 Q 212 389.3333333333333 215.66666666666666 389.3333333333333 L 560 389.3333333333333" fill="none" stroke="#9aa4b0" stroke-width="2.6" stroke-linejoin="round" stroke-linecap="round" />
<rect class="wlabel-bg" x="365.8" y="380.333" width="40.4" height="18" rx="5" fill="#fff" stroke="#e3e8ee" stroke-width="1" />
<text class="wlabel-t" x="386" y="389.833" font-family="JetBrains Mono, monospace" font-size="10.5" font-weight="600" fill="#5a6573" text-anchor="middle" dominant-baseline="middle">GPIO</text>
</g>
<g data-system-connection-id="w_17">
<path class="wire" d="M 688 354.6666666666667 L 907 354.6666666666667 Q 916 354.6666666666667 916 345.6666666666667 L 916 264 Q 916 255 925 255 L 940 255" fill="none" stroke="#9aa4b0" stroke-width="2.6" stroke-linejoin="round" stroke-linecap="round" />
<rect class="wlabel-bg" x="781.8" y="345.667" width="40.4" height="18" rx="5" fill="#fff" stroke="#e3e8ee" stroke-width="1" />
<text class="wlabel-t" x="802" y="355.167" font-family="JetBrains Mono, monospace" font-size="10.5" font-weight="600" fill="#5a6573" text-anchor="middle" dominant-baseline="middle">GPIO</text>
</g>
<g data-system-connection-id="w_18">
<path class="wire" d="M 60 382 L 45 382 Q 36 382 36 391 L 36 513 Q 36 522 45 522 L 320 522" fill="none" stroke="#9aa4b0" stroke-width="2.6" stroke-linejoin="round" stroke-linecap="round" />
<rect class="wlabel-bg" x="161.1" y="513" width="33.8" height="18" rx="5" fill="#fff" stroke="#e3e8ee" stroke-width="1" />
<text class="wlabel-t" x="178" y="522.5" font-family="JetBrains Mono, monospace" font-size="10.5" font-weight="600" fill="#5a6573" text-anchor="middle" dominant-baseline="middle">I2C</text>
</g>
<g data-system-connection-id="w_19">
<path class="wire" d="M 448 522 L 907 522 Q 916 522 916 531 L 916 733 Q 916 742 925 742 L 940 742" fill="none" stroke="#9aa4b0" stroke-width="2.6" stroke-linejoin="round" stroke-linecap="round" />
<rect class="wlabel-bg" x="665.1" y="513" width="33.8" height="18" rx="5" fill="#fff" stroke="#e3e8ee" stroke-width="1" />
<text class="wlabel-t" x="682" y="522.5" font-family="JetBrains Mono, monospace" font-size="10.5" font-weight="600" fill="#5a6573" text-anchor="middle" dominant-baseline="middle">I2C</text>
</g>
<g data-system-connection-id="w_20">
<path class="wire" d="M 1068 742 L 1083 742 Q 1092 742 1092 733 L 1092 323 Q 1092 314 1083 314 L 1037 314 Q 1028 314 1028 305 L 1028 290" fill="none" stroke="#9aa4b0" stroke-width="2.6" stroke-linejoin="round" stroke-linecap="round" />
<rect class="wlabel-bg" x="1065.2" y="519" width="53.6" height="18" rx="5" fill="#fff" stroke="#e3e8ee" stroke-width="1" />
<text class="wlabel-t" x="1092" y="528.5" font-family="JetBrains Mono, monospace" font-size="10.5" font-weight="600" fill="#5a6573" text-anchor="middle" dominant-baseline="middle">SUPPLY</text>
</g>
<g class="block" data-system-block-id="b_1" transform="translate(60,60)">
<rect class="block-rect" width="128" height="104" rx="14" fill="#fff" stroke="#2b3543" stroke-width="1.6" />
<rect class="numbadge" x="9" y="9" width="22" height="18" rx="5" fill="#f1f4f8" stroke="#cfd6df" stroke-width="1" />
<text class="numbadge-t" x="20" y="22" font-family="Inter, sans-serif" font-size="11" font-weight="700" fill="#5a6573" text-anchor="middle">1</text>
<circle class="status-dot" cx="113" cy="18" r="7" fill="#22c55e" stroke="#fff" stroke-width="1.5" />
<path d="M 110 18 l 2 2 l 3.5 -4" stroke="#fff" stroke-width="1.6" fill="none" stroke-linecap="round" stroke-linejoin="round" />
<g transform="translate(43.2,24.2) scale(1.733)" fill="none" stroke="#1f2733" stroke-width="1.7" stroke-linecap="round" stroke-linejoin="round"><circle cx="12" cy="9" r="2"/><path d="M12 11v9M7.5 4.5a6.4 6.4 0 0 1 9 0M5 7a9.9 9.9 0 0 1 14 0"/></g>
<text class="block-label" x="64" y="91" font-family="Inter, sans-serif" font-size="12.5" font-weight="600" fill="#1f2733" text-anchor="middle">Radio Transceiver</text>
<circle class="port" data-system-port-id="b_1_right_0" cx="128" cy="34.667" r="4.5" fill="#fff" stroke="#cfd6df" stroke-width="1.6" />
<circle class="port" data-system-port-id="b_1_right_1" cx="128" cy="69.333" r="4.5" fill="#fff" stroke="#cfd6df" stroke-width="1.6" />
<circle class="port" data-system-port-id="b_1_bottom_0" cx="64" cy="104" r="4.5" fill="#fff" stroke="#cfd6df" stroke-width="1.6" />
</g>
<g class="block" data-system-block-id="b_2" transform="translate(560,30)">
<rect class="block-rect" width="128" height="104" rx="14" fill="#fff" stroke="#2b3543" stroke-width="1.6" />
<rect class="numbadge" x="9" y="9" width="22" height="18" rx="5" fill="#f1f4f8" stroke="#cfd6df" stroke-width="1" />
<text class="numbadge-t" x="20" y="22" font-family="Inter, sans-serif" font-size="11" font-weight="700" fill="#5a6573" text-anchor="middle">2</text>
<circle class="status-dot" cx="113" cy="18" r="7" fill="#22c55e" stroke="#fff" stroke-width="1.5" />
<path d="M 110 18 l 2 2 l 3.5 -4" stroke="#fff" stroke-width="1.6" fill="none" stroke-linecap="round" stroke-linejoin="round" />
<g transform="translate(43.2,24.2) scale(1.733)" fill="none" stroke="#1f2733" stroke-width="1.7" stroke-linecap="round" stroke-linejoin="round"><path d="M5 6 12 11 5 16z"/><path d="M19 8 12 13 19 18z"/></g>
<text class="block-label" x="64" y="91" font-family="Inter, sans-serif" font-size="12.5" font-weight="600" fill="#1f2733" text-anchor="middle">Level Shifter</text>
<circle class="port" data-system-port-id="b_2_left_0" cx="0" cy="34.667" r="4.5" fill="#fff" stroke="#cfd6df" stroke-width="1.6" />
<circle class="port" data-system-port-id="b_2_left_1" cx="0" cy="69.333" r="4.5" fill="#fff" stroke="#cfd6df" stroke-width="1.6" />
<circle class="port" data-system-port-id="b_2_right_0" cx="128" cy="34.667" r="4.5" fill="#fff" stroke="#cfd6df" stroke-width="1.6" />
<circle class="port" data-system-port-id="b_2_right_1" cx="128" cy="69.333" r="4.5" fill="#fff" stroke="#cfd6df" stroke-width="1.6" />
<circle class="port" data-system-port-id="b_2_bottom_0" cx="64" cy="104" r="4.5" fill="#fff" stroke="#cfd6df" stroke-width="1.6" />
</g>
<g class="block" data-system-block-id="b_3" transform="translate(940,150)">
<rect class="block-rect" width="176" height="140" rx="14" fill="#fff" stroke="#2b3543" stroke-width="1.6" />
<rect class="numbadge" x="9" y="9" width="22" height="18" rx="5" fill="#f1f4f8" stroke="#cfd6df" stroke-width="1" />
<text class="numbadge-t" x="20" y="22" font-family="Inter, sans-serif" font-size="11" font-weight="700" fill="#5a6573" text-anchor="middle">3</text>
<circle class="status-dot" cx="161" cy="18" r="7" fill="#22c55e" stroke="#fff" stroke-width="1.5" />
<path d="M 158 18 l 2 2 l 3.5 -4" stroke="#fff" stroke-width="1.6" fill="none" stroke-linecap="round" stroke-linejoin="round" />
<g transform="translate(65,40) scale(1.917)" fill="none" stroke="#1f2733" stroke-width="1.7" stroke-linecap="round" stroke-linejoin="round"><rect x="6" y="6" width="12" height="12" rx="1.5"/><rect x="9.5" y="9.5" width="5" height="5" rx=".6"/><path d="M9 6V3M15 6V3M9 21v-3M15 21v-3M6 9H3M6 15H3M21 9h-3M21 15h-3"/></g>
<text class="block-label" x="88" y="127" font-family="Inter, sans-serif" font-size="12.5" font-weight="600" fill="#1f2733" text-anchor="middle">BLE Module</text>
<circle class="port" data-system-port-id="b_3_left_0" cx="0" cy="35" r="4.5" fill="#fff" stroke="#cfd6df" stroke-width="1.6" />
<circle class="port" data-system-port-id="b_3_left_1" cx="0" cy="70" r="4.5" fill="#fff" stroke="#cfd6df" stroke-width="1.6" />
<circle class="port" data-system-port-id="b_3_left_2" cx="0" cy="105" r="4.5" fill="#fff" stroke="#cfd6df" stroke-width="1.6" />
<circle class="port" data-system-port-id="b_3_right_0" cx="176" cy="46.667" r="4.5" fill="#fff" stroke="#cfd6df" stroke-width="1.6" />
<circle class="port" data-system-port-id="b_3_right_1" cx="176" cy="93.333" r="4.5" fill="#fff" stroke="#cfd6df" stroke-width="1.6" />
<circle class="port" data-system-port-id="b_3_bottom_0" cx="88" cy="140" r="4.5" fill="#fff" stroke="#cfd6df" stroke-width="1.6" />
</g>
<g class="block" data-system-block-id="b_4" transform="translate(1330,150)">
<rect class="block-rect" width="128" height="104" rx="14" fill="#fff" stroke="#2b3543" stroke-width="1.6" />
<rect class="numbadge" x="9" y="9" width="22" height="18" rx="5" fill="#f1f4f8" stroke="#cfd6df" stroke-width="1" />
<text class="numbadge-t" x="20" y="22" font-family="Inter, sans-serif" font-size="11" font-weight="700" fill="#5a6573" text-anchor="middle">4</text>
<circle class="status-dot" cx="113" cy="18" r="7" fill="#22c55e" stroke="#fff" stroke-width="1.5" />
<path d="M 110 18 l 2 2 l 3.5 -4" stroke="#fff" stroke-width="1.6" fill="none" stroke-linecap="round" stroke-linejoin="round" />
<g transform="translate(43.2,24.2) scale(1.733)" fill="none" stroke="#1f2733" stroke-width="1.7" stroke-linecap="round" stroke-linejoin="round"><rect x="5" y="6" width="14" height="12" rx="1.5"/><path d="M8 6V3.5M12 6V3.5M16 6V3.5M8 18v2.5M12 18v2.5M16 18v2.5M9 10h6M9 13h6"/></g>
<text class="block-label" x="64" y="91" font-family="Inter, sans-serif" font-size="12.5" font-weight="600" fill="#1f2733" text-anchor="middle">Flash</text>
<circle class="port" data-system-port-id="b_4_left_0" cx="0" cy="34.667" r="4.5" fill="#fff" stroke="#cfd6df" stroke-width="1.6" />
<circle class="port" data-system-port-id="b_4_left_1" cx="0" cy="69.333" r="4.5" fill="#fff" stroke="#cfd6df" stroke-width="1.6" />
<circle class="port" data-system-port-id="b_4_bottom_0" cx="64" cy="104" r="4.5" fill="#fff" stroke="#cfd6df" stroke-width="1.6" />
</g>
<g class="block" data-system-block-id="b_5" transform="translate(60,330)">
<rect class="block-rect" width="128" height="104" rx="14" fill="#fff" stroke="#2b3543" stroke-width="1.6" />
<rect class="numbadge" x="9" y="9" width="22" height="18" rx="5" fill="#f1f4f8" stroke="#cfd6df" stroke-width="1" />
<text class="numbadge-t" x="20" y="22" font-family="Inter, sans-serif" font-size="11" font-weight="700" fill="#5a6573" text-anchor="middle">5</text>
<circle class="status-dot" cx="113" cy="18" r="7" fill="#22c55e" stroke="#fff" stroke-width="1.5" />
<path d="M 110 18 l 2 2 l 3.5 -4" stroke="#fff" stroke-width="1.6" fill="none" stroke-linecap="round" stroke-linejoin="round" />
<g transform="translate(43.2,24.2) scale(1.733)" fill="none" stroke="#1f2733" stroke-width="1.7" stroke-linecap="round" stroke-linejoin="round"><rect x="6" y="6" width="12" height="12" rx="2"/><path d="M9 15V9l6 6V9"/></g>
<text class="block-label" x="64" y="91" font-family="Inter, sans-serif" font-size="12.5" font-weight="600" fill="#1f2733" text-anchor="middle">NFC</text>
<circle class="port" data-system-port-id="b_5_left_0" cx="0" cy="52" r="4.5" fill="#fff" stroke="#cfd6df" stroke-width="1.6" />
<circle class="port" data-system-port-id="b_5_right_0" cx="128" cy="26" r="4.5" fill="#fff" stroke="#cfd6df" stroke-width="1.6" />
<circle class="port" data-system-port-id="b_5_right_1" cx="128" cy="52" r="4.5" fill="#fff" stroke="#cfd6df" stroke-width="1.6" />
<circle class="port" data-system-port-id="b_5_right_2" cx="128" cy="78" r="4.5" fill="#fff" stroke="#cfd6df" stroke-width="1.6" />
<circle class="port" data-system-port-id="b_5_bottom_0" cx="64" cy="104" r="4.5" fill="#fff" stroke="#cfd6df" stroke-width="1.6" />
</g>
<g class="block" data-system-block-id="b_6" transform="translate(560,320)">
<rect class="block-rect" width="128" height="104" rx="14" fill="#fff" stroke="#2b3543" stroke-width="1.6" />
<rect class="numbadge" x="9" y="9" width="22" height="18" rx="5" fill="#f1f4f8" stroke="#cfd6df" stroke-width="1" />
<text class="numbadge-t" x="20" y="22" font-family="Inter, sans-serif" font-size="11" font-weight="700" fill="#5a6573" text-anchor="middle">6</text>
<circle class="status-dot" cx="113" cy="18" r="7" fill="#22c55e" stroke="#fff" stroke-width="1.5" />
<path d="M 110 18 l 2 2 l 3.5 -4" stroke="#fff" stroke-width="1.6" fill="none" stroke-linecap="round" stroke-linejoin="round" />
<g transform="translate(43.2,24.2) scale(1.733)" fill="none" stroke="#1f2733" stroke-width="1.7" stroke-linecap="round" stroke-linejoin="round"><path d="M5 6 12 11 5 16z"/><path d="M19 8 12 13 19 18z"/></g>
<text class="block-label" x="64" y="91" font-family="Inter, sans-serif" font-size="12.5" font-weight="600" fill="#1f2733" text-anchor="middle">Signal Level Shift</text>
<circle class="port" data-system-port-id="b_6_left_0" cx="0" cy="34.667" r="4.5" fill="#fff" stroke="#cfd6df" stroke-width="1.6" />
<circle class="port" data-system-port-id="b_6_left_1" cx="0" cy="69.333" r="4.5" fill="#fff" stroke="#cfd6df" stroke-width="1.6" />
<circle class="port" data-system-port-id="b_6_right_0" cx="128" cy="34.667" r="4.5" fill="#fff" stroke="#cfd6df" stroke-width="1.6" />
<circle class="port" data-system-port-id="b_6_right_1" cx="128" cy="69.333" r="4.5" fill="#fff" stroke="#cfd6df" stroke-width="1.6" />
<circle class="port" data-system-port-id="b_6_bottom_0" cx="64" cy="104" r="4.5" fill="#fff" stroke="#cfd6df" stroke-width="1.6" />
</g>
<g class="block" data-system-block-id="b_7" transform="translate(320,470)">
<rect class="block-rect" width="128" height="104" rx="14" fill="#fff" stroke="#2b3543" stroke-width="1.6" />
<rect class="numbadge" x="9" y="9" width="22" height="18" rx="5" fill="#f1f4f8" stroke="#cfd6df" stroke-width="1" />
<text class="numbadge-t" x="20" y="22" font-family="Inter, sans-serif" font-size="11" font-weight="700" fill="#5a6573" text-anchor="middle">7</text>
<circle class="status-dot" cx="113" cy="18" r="7" fill="#22c55e" stroke="#fff" stroke-width="1.5" />
<path d="M 110 18 l 2 2 l 3.5 -4" stroke="#fff" stroke-width="1.6" fill="none" stroke-linecap="round" stroke-linejoin="round" />
<g transform="translate(43.2,24.2) scale(1.733)" fill="none" stroke="#1f2733" stroke-width="1.7" stroke-linecap="round" stroke-linejoin="round"><circle cx="8" cy="12" r="4"/><path d="M11 11h9l-1.5 2M16 11v3"/></g>
<text class="block-label" x="64" y="91" font-family="Inter, sans-serif" font-size="12.5" font-weight="600" fill="#1f2733" text-anchor="middle">Authenticators</text>
<circle class="port" data-system-port-id="b_7_left_0" cx="0" cy="52" r="4.5" fill="#fff" stroke="#cfd6df" stroke-width="1.6" />
<circle class="port" data-system-port-id="b_7_right_0" cx="128" cy="52" r="4.5" fill="#fff" stroke="#cfd6df" stroke-width="1.6" />
<circle class="port" data-system-port-id="b_7_bottom_0" cx="64" cy="104" r="4.5" fill="#fff" stroke="#cfd6df" stroke-width="1.6" />
</g>
<g class="block" data-system-block-id="b_8" transform="translate(940,690)">
<rect class="block-rect" width="128" height="104" rx="14" fill="#fff" stroke="#2b3543" stroke-width="1.6" />
<rect class="numbadge" x="9" y="9" width="22" height="18" rx="5" fill="#f1f4f8" stroke="#cfd6df" stroke-width="1" />
<text class="numbadge-t" x="20" y="22" font-family="Inter, sans-serif" font-size="11" font-weight="700" fill="#5a6573" text-anchor="middle">8</text>
<circle class="status-dot" cx="113" cy="18" r="7" fill="#22c55e" stroke="#fff" stroke-width="1.5" />
<path d="M 110 18 l 2 2 l 3.5 -4" stroke="#fff" stroke-width="1.6" fill="none" stroke-linecap="round" stroke-linejoin="round" />
<g transform="translate(43.2,24.2) scale(1.733)" fill="none" stroke="#1f2733" stroke-width="1.7" stroke-linecap="round" stroke-linejoin="round"><rect x="5" y="7" width="14" height="10" rx="2"/><path d="M9 7V4M15 7V4M10 12l1.6 0M14 10v4"/><circle cx="11" cy="12" r=".4"/></g>
<text class="block-label" x="64" y="91" font-family="Inter, sans-serif" font-size="12.5" font-weight="600" fill="#1f2733" text-anchor="middle">PMIC</text>
<circle class="port" data-system-port-id="b_8_left_0" cx="0" cy="52" r="4.5" fill="#fff" stroke="#cfd6df" stroke-width="1.6" />
<circle class="port" data-system-port-id="b_8_right_0" cx="128" cy="52" r="4.5" fill="#fff" stroke="#cfd6df" stroke-width="1.6" />
</g>
</g>
</svg>