<svg width="663" height="528" viewBox="0 0 663 528" xmlns="http://www.w3.org/2000/svg">
<defs>
<pattern id="dots" width="22" height="22" patternUnits="userSpaceOnUse">
<circle cx="1.4" cy="1.4" r="1.4" fill="#e6eaef" />
</pattern>
</defs>
<rect class="grid-bg" x="0" y="0" width="663" height="528" fill="url(#dots)" />
<g transform="translate(78,47)">
<g data-system-connection-id="i2c_vertical">
<path class="wire" d="M 220 154 L 220 79" fill="none" stroke="#9aa4b0" stroke-width="2.6" stroke-linejoin="round" stroke-linecap="round" />
<rect class="wlabel-bg" x="203.1" y="107.5" width="33.8" height="18" rx="5" fill="#fff" stroke="#e3e8ee" stroke-width="1" />
<text class="wlabel-t" x="220" y="117" font-family="JetBrains Mono, monospace" font-size="10.5" font-weight="600" fill="#5a6573" text-anchor="middle" dominant-baseline="middle">i2c</text>
</g>
<g data-system-connection-id="pwm_horizontal">
<path class="wire" d="M 295 210 L 403 210" fill="none" stroke="#9aa4b0" stroke-width="2.6" stroke-linejoin="round" stroke-linecap="round" />
<rect class="wlabel-bg" x="328.8" y="201" width="40.4" height="18" rx="5" fill="#fff" stroke="#e3e8ee" stroke-width="1" />
<text class="wlabel-t" x="349" y="210.5" font-family="JetBrains Mono, monospace" font-size="10.5" font-weight="600" fill="#5a6573" text-anchor="middle" dominant-baseline="middle">gpio</text>
</g>
<g data-system-connection-id="uart_left">
<path class="wire" d="M 90 210 L 145 210" fill="none" stroke="#9aa4b0" stroke-width="2.6" stroke-linejoin="round" stroke-linecap="round" />
<rect class="wlabel-bg" x="97.3" y="201" width="40.4" height="18" rx="5" fill="#fff" stroke="#e3e8ee" stroke-width="1" />
<text class="wlabel-t" x="117.5" y="210.5" font-family="JetBrains Mono, monospace" font-size="10.5" font-weight="600" fill="#5a6573" text-anchor="middle" dominant-baseline="middle">uart</text>
</g>
<g data-system-connection-id="power_vertical">
<path class="wire" d="M 220 347 L 220 266" fill="none" stroke="#9aa4b0" stroke-width="2.6" stroke-linejoin="round" stroke-linecap="round" />
<rect class="wlabel-bg" x="199.8" y="297.5" width="40.4" height="18" rx="5" fill="#fff" stroke="#e3e8ee" stroke-width="1" />
<text class="wlabel-t" x="220" y="307" font-family="JetBrains Mono, monospace" font-size="10.5" font-weight="600" fill="#5a6573" text-anchor="middle" dominant-baseline="middle">VBAT</text>
</g>
<g class="block" data-system-block-id="sensor_hub" transform="translate(145,154)">
<rect class="block-rect" width="150" height="112" rx="14" fill="#fff" stroke="#2b3543" stroke-width="1.6" />
<rect class="numbadge" x="9" y="9" width="22" height="18" rx="5" fill="#f1f4f8" stroke="#cfd6df" stroke-width="1" />
<text class="numbadge-t" x="20" y="22" font-family="Inter, sans-serif" font-size="11" font-weight="700" fill="#5a6573" text-anchor="middle">1</text>
<circle class="status-dot" cx="135" cy="18" r="7" fill="#22c55e" stroke="#fff" stroke-width="1.5" />
<path d="M 132 18 l 2 2 l 3.5 -4" stroke="#fff" stroke-width="1.6" fill="none" stroke-linecap="round" stroke-linejoin="round" />
<rect x="60.664" y="34.664" width="28.672" height="28.672" rx="5" fill="none" stroke="#1f2733" stroke-width="2" />
<path d="M 67.832 49 h 14.336 M 75 41.832 v 14.336" stroke="#1f2733" stroke-width="1.8" stroke-linecap="round" />
<text class="block-label" x="75" y="99" font-family="Inter, sans-serif" font-size="12.5" font-weight="600" fill="#1f2733" text-anchor="middle">Sensor Hub</text>
<circle class="port" data-system-port-id="hub_i2c" cx="75" cy="0" r="4.5" fill="#fff" stroke="#cfd6df" stroke-width="1.6" />
<circle class="port" data-system-port-id="hub_pwm" cx="150" cy="56" r="4.5" fill="#fff" stroke="#cfd6df" stroke-width="1.6" />
<circle class="port" data-system-port-id="hub_uart" cx="0" cy="56" r="4.5" fill="#fff" stroke="#cfd6df" stroke-width="1.6" />
<circle class="port" data-system-port-id="hub_vbat" cx="75" cy="112" r="4.5" fill="#fff" stroke="#cfd6df" stroke-width="1.6" />
</g>
<g class="block" data-system-block-id="temperature" transform="translate(158,1)">
<rect class="block-rect" width="124" height="78" rx="14" fill="#fff" stroke="#2b3543" stroke-width="1.6" />
<rect class="numbadge" x="9" y="9" width="22" height="18" rx="5" fill="#f1f4f8" stroke="#cfd6df" stroke-width="1" />
<text class="numbadge-t" x="20" y="22" font-family="Inter, sans-serif" font-size="11" font-weight="700" fill="#5a6573" text-anchor="middle">2</text>
<circle class="status-dot" cx="109" cy="18" r="7" fill="#22c55e" stroke="#fff" stroke-width="1.5" />
<path d="M 106 18 l 2 2 l 3.5 -4" stroke="#fff" stroke-width="1.6" fill="none" stroke-linecap="round" stroke-linejoin="round" />
<rect x="52.016" y="22.016" width="19.968" height="19.968" rx="5" fill="none" stroke="#1f2733" stroke-width="2" />
<path d="M 57.008 32 h 9.984 M 62 27.008 v 9.984" stroke="#1f2733" stroke-width="1.8" stroke-linecap="round" />
<text class="block-label" x="62" y="65" font-family="Inter, sans-serif" font-size="12.5" font-weight="600" fill="#1f2733" text-anchor="middle">Temp</text>
<circle class="port" data-system-port-id="temp_i2c" cx="62" cy="78" r="4.5" fill="#fff" stroke="#cfd6df" stroke-width="1.6" />
</g>
<g class="block" data-system-block-id="actuator" transform="translate(403,162)">
<rect class="block-rect" width="134" height="96" rx="14" fill="#fff" stroke="#2b3543" stroke-width="1.6" />
<rect class="numbadge" x="9" y="9" width="22" height="18" rx="5" fill="#f1f4f8" stroke="#cfd6df" stroke-width="1" />
<text class="numbadge-t" x="20" y="22" font-family="Inter, sans-serif" font-size="11" font-weight="700" fill="#5a6573" text-anchor="middle">3</text>
<circle class="status-dot" cx="119" cy="18" r="7" fill="#22c55e" stroke="#fff" stroke-width="1.5" />
<path d="M 116 18 l 2 2 l 3.5 -4" stroke="#fff" stroke-width="1.6" fill="none" stroke-linecap="round" stroke-linejoin="round" />
<circle cx="67" cy="41" r="10.752" fill="none" stroke="#1f2733" stroke-width="2" />
<path d="M 67 28.712 v 10.752" stroke="#1f2733" stroke-width="2.4" stroke-linecap="round" />
<text class="block-label" x="67" y="83" font-family="Inter, sans-serif" font-size="12.5" font-weight="600" fill="#1f2733" text-anchor="middle">Actuator</text>
<circle class="port" data-system-port-id="actuator_pwm" cx="0" cy="48" r="4.5" fill="#fff" stroke="#cfd6df" stroke-width="1.6" />
</g>
<g class="block" data-system-block-id="debug" transform="translate(-30,165)">
<rect class="block-rect" width="120" height="90" rx="14" fill="#fff" stroke="#2b3543" stroke-width="1.6" />
<rect class="numbadge" x="9" y="9" width="22" height="18" rx="5" fill="#f1f4f8" stroke="#cfd6df" stroke-width="1" />
<text class="numbadge-t" x="20" y="22" font-family="Inter, sans-serif" font-size="11" font-weight="700" fill="#5a6573" text-anchor="middle">4</text>
<circle class="status-dot" cx="105" cy="18" r="7" fill="#22c55e" stroke="#fff" stroke-width="1.5" />
<path d="M 102 18 l 2 2 l 3.5 -4" stroke="#fff" stroke-width="1.6" fill="none" stroke-linecap="round" stroke-linejoin="round" />
<rect x="48.48" y="26.48" width="23.04" height="23.04" rx="5" fill="none" stroke="#1f2733" stroke-width="2" />
<path d="M 54.24 38 h 11.52 M 60 32.24 v 11.52" stroke="#1f2733" stroke-width="1.8" stroke-linecap="round" />
<text class="block-label" x="60" y="77" font-family="Inter, sans-serif" font-size="12.5" font-weight="600" fill="#1f2733" text-anchor="middle">Debug</text>
<circle class="port" data-system-port-id="debug_uart" cx="120" cy="45" r="4.5" fill="#fff" stroke="#cfd6df" stroke-width="1.6" />
</g>
<g class="block" data-system-block-id="battery" transform="translate(154,347)">
<rect class="block-rect" width="132" height="86" rx="14" fill="#fff" stroke="#2b3543" stroke-width="1.6" />
<rect class="numbadge" x="9" y="9" width="22" height="18" rx="5" fill="#f1f4f8" stroke="#cfd6df" stroke-width="1" />
<text class="numbadge-t" x="20" y="22" font-family="Inter, sans-serif" font-size="11" font-weight="700" fill="#5a6573" text-anchor="middle">5</text>
<circle class="status-dot" cx="117" cy="18" r="7" fill="#22c55e" stroke="#fff" stroke-width="1.5" />
<path d="M 114 18 l 2 2 l 3.5 -4" stroke="#fff" stroke-width="1.6" fill="none" stroke-linecap="round" stroke-linejoin="round" />
<rect x="54.992" y="29.12" width="19.952" height="13.76" rx="3" fill="none" stroke="#1f2733" stroke-width="2" />
<rect x="74.944" y="33.248" width="2.752" height="5.504" rx="1" fill="#1f2733" />
<text class="block-label" x="66" y="73" font-family="Inter, sans-serif" font-size="12.5" font-weight="600" fill="#1f2733" text-anchor="middle">Battery</text>
<circle class="port" data-system-port-id="battery_vbat" cx="66" cy="0" r="4.5" fill="#fff" stroke="#cfd6df" stroke-width="1.6" />
</g>
</g>
</svg>