<svg width="511.5" height="864" viewBox="0 0 511.5 864" xmlns="http://www.w3.org/2000/svg">
<defs>
<pattern id="dots" width="22" height="22" patternUnits="userSpaceOnUse">
<circle cx="1.4" cy="1.4" r="1.4" fill="#e6eaef" />
</pattern>
</defs>
<rect class="grid-bg" x="0" y="0" width="511.5" height="864" fill="url(#dots)" />
<g transform="translate(-120.5,-83)">
<g data-system-connection-id="i2c_monitor">
<path class="wire" d="M 430 155 L 430 140 Q 430 131 421 131 L 285 131 Q 276 131 276 140 L 276 506 Q 276 515 285 515 L 300 515" fill="none" stroke="#9aa4b0" stroke-width="2.6" stroke-linejoin="round" stroke-linecap="round" />
<rect class="wlabel-bg" x="259.1" y="314" width="33.8" height="18" rx="5" fill="#fff" stroke="#e3e8ee" stroke-width="1" />
<text class="wlabel-t" x="276" y="323.5" font-family="JetBrains Mono, monospace" font-size="10.5" font-weight="600" fill="#5a6573" text-anchor="middle" dominant-baseline="middle">I2C</text>
</g>
<g data-system-connection-id="i2c_sensor">
<path class="wire" d="M 560 230 L 575 230 Q 584 230 584 239 L 584 613 Q 584 622 575 622 L 177.5 622 Q 168.5 622 168.5 631 L 168.5 836 Q 168.5 845 177.5 845 L 192.5 845" fill="none" stroke="#9aa4b0" stroke-width="2.6" stroke-linejoin="round" stroke-linecap="round" />
<rect class="wlabel-bg" x="359.35" y="613" width="33.8" height="18" rx="5" fill="#fff" stroke="#e3e8ee" stroke-width="1" />
<text class="wlabel-t" x="376.25" y="622.5" font-family="JetBrains Mono, monospace" font-size="10.5" font-weight="600" fill="#5a6573" text-anchor="middle" dominant-baseline="middle">I2C</text>
</g>
<g data-system-connection-id="supply_monitor">
<path class="wire" d="M 430 305 L 430 444" fill="none" stroke="#9aa4b0" stroke-width="2.6" stroke-linejoin="round" stroke-linecap="round" />
<rect class="wlabel-bg" x="403.2" y="365.5" width="53.6" height="18" rx="5" fill="#fff" stroke="#e3e8ee" stroke-width="1" />
<text class="wlabel-t" x="430" y="375" font-family="JetBrains Mono, monospace" font-size="10.5" font-weight="600" fill="#5a6573" text-anchor="middle" dominant-baseline="middle">SUPPLY</text>
</g>
<g class="block" data-system-block-id="microcontroller" transform="translate(300,155)">
<rect class="block-rect" width="260" height="150" rx="14" fill="#fff" stroke="#2b3543" stroke-width="1.6" />
<rect class="numbadge" x="9" y="9" width="22" height="18" rx="5" fill="#f1f4f8" stroke="#cfd6df" stroke-width="1" />
<text class="numbadge-t" x="20" y="22" font-family="Inter, sans-serif" font-size="11" font-weight="700" fill="#5a6573" text-anchor="middle">1</text>
<circle class="status-dot" cx="245" cy="18" r="7" fill="#22c55e" stroke="#fff" stroke-width="1.5" />
<path d="M 242 18 l 2 2 l 3.5 -4" stroke="#fff" stroke-width="1.6" fill="none" stroke-linecap="round" stroke-linejoin="round" />
<g transform="translate(107,45) scale(1.917)" fill="none" stroke="#1f2733" stroke-width="1.7" stroke-linecap="round" stroke-linejoin="round"><rect x="6" y="6" width="12" height="12" rx="1.5"/><rect x="9.5" y="9.5" width="5" height="5" rx=".6"/><path d="M9 6V3M15 6V3M9 21v-3M15 21v-3M6 9H3M6 15H3M21 9h-3M21 15h-3"/></g>
<text class="block-label" x="130" y="137" font-family="Inter, sans-serif" font-size="12.5" font-weight="600" fill="#1f2733" text-anchor="middle">Microcontroller</text>
<circle class="port" data-system-port-id="mcu_i2c_top" cx="130" cy="0" r="4.5" fill="#fff" stroke="#cfd6df" stroke-width="1.6" />
<circle class="port" data-system-port-id="mcu_i2c_right" cx="260" cy="75" r="4.5" fill="#fff" stroke="#cfd6df" stroke-width="1.6" />
<circle class="port" data-system-port-id="mcu_supply" cx="130" cy="150" r="4.5" fill="#fff" stroke="#cfd6df" stroke-width="1.6" />
</g>
<g class="block" data-system-block-id="power_monitor" transform="translate(300,444)">
<rect class="block-rect" width="260" height="142" rx="14" fill="#fff" stroke="#2b3543" stroke-width="1.6" />
<rect class="numbadge" x="9" y="9" width="22" height="18" rx="5" fill="#f1f4f8" stroke="#cfd6df" stroke-width="1" />
<text class="numbadge-t" x="20" y="22" font-family="Inter, sans-serif" font-size="11" font-weight="700" fill="#5a6573" text-anchor="middle">2</text>
<circle class="status-dot" cx="245" cy="18" r="7" fill="#22c55e" stroke="#fff" stroke-width="1.5" />
<path d="M 242 18 l 2 2 l 3.5 -4" stroke="#fff" stroke-width="1.6" fill="none" stroke-linecap="round" stroke-linejoin="round" />
<g transform="translate(107,41) scale(1.917)" fill="none" stroke="#1f2733" stroke-width="1.7" stroke-linecap="round" stroke-linejoin="round"><rect x="5" y="7" width="14" height="10" rx="2"/><path d="M9 7V4M15 7V4M10 12l1.6 0M14 10v4"/><circle cx="11" cy="12" r=".4"/></g>
<text class="block-label" x="130" y="129" font-family="Inter, sans-serif" font-size="12.5" font-weight="600" fill="#1f2733" text-anchor="middle">Power Monitor</text>
<circle class="port" data-system-port-id="monitor_i2c" cx="0" cy="71" r="4.5" fill="#fff" stroke="#cfd6df" stroke-width="1.6" />
<circle class="port" data-system-port-id="monitor_supply" cx="130" cy="0" r="4.5" fill="#fff" stroke="#cfd6df" stroke-width="1.6" />
</g>
<g class="block" data-system-block-id="environmental_sensor" transform="translate(192.5,791)">
<rect class="block-rect" width="215" height="108" rx="14" fill="#fff" stroke="#2b3543" stroke-width="1.6" />
<rect class="numbadge" x="9" y="9" width="22" height="18" rx="5" fill="#f1f4f8" stroke="#cfd6df" stroke-width="1" />
<text class="numbadge-t" x="20" y="22" font-family="Inter, sans-serif" font-size="11" font-weight="700" fill="#5a6573" text-anchor="middle">3</text>
<circle class="status-dot" cx="200" cy="18" r="7" fill="#22c55e" stroke="#fff" stroke-width="1.5" />
<path d="M 197 18 l 2 2 l 3.5 -4" stroke="#fff" stroke-width="1.6" fill="none" stroke-linecap="round" stroke-linejoin="round" />
<g transform="translate(85.9,25.4) scale(1.8)" fill="none" stroke="#1f2733" stroke-width="1.7" stroke-linecap="round" stroke-linejoin="round"><rect x="6" y="6" width="12" height="12" rx="1.5"/><rect x="9.5" y="9.5" width="5" height="5" rx=".6"/><path d="M9 6V3M15 6V3M9 21v-3M15 21v-3M6 9H3M6 15H3M21 9h-3M21 15h-3"/></g>
<text class="block-label" x="107.5" y="95" font-family="Inter, sans-serif" font-size="12.5" font-weight="600" fill="#1f2733" text-anchor="middle">Environmental Sensor</text>
<circle class="port" data-system-port-id="sensor_i2c" cx="0" cy="54" r="4.5" fill="#fff" stroke="#cfd6df" stroke-width="1.6" />
</g>
</g>
</svg>