<svg width="521" height="444" viewBox="0 0 521 444" xmlns="http://www.w3.org/2000/svg">
<defs>
<pattern id="dots" width="22" height="22" patternUnits="userSpaceOnUse">
<circle cx="1.4" cy="1.4" r="1.4" fill="#e6eaef" />
</pattern>
</defs>
<rect class="grid-bg" x="0" y="0" width="521" height="444" fill="url(#dots)" />
<g transform="translate(-10,4)">
<g data-system-connection-id="sensor_supply">
<path class="wire" d="M 182 186.4 L 324 186.4 Q 333 186.4 333 177.4 L 333 89 Q 333 80 342 80 L 357 80" fill="none" stroke="#9aa4b0" stroke-width="2.6" stroke-linejoin="round" stroke-linecap="round" />
<rect class="wlabel-bg" x="240.6" y="177.4" width="33.8" height="18" rx="5" fill="#fff" stroke="#e3e8ee" stroke-width="1" />
<text class="wlabel-t" x="257.5" y="186.9" font-family="JetBrains Mono, monospace" font-size="10.5" font-weight="600" fill="#5a6573" text-anchor="middle" dominant-baseline="middle">3V3</text>
</g>
<g data-system-connection-id="radio_supply">
<path class="wire" d="M 182 208.8 L 197 208.8 Q 206 208.8 206 217.8 L 206 235 Q 206 244 215 244 L 324 244 Q 333 244 333 235 L 333 181 Q 333 172 342 172 L 357 172" fill="none" stroke="#9aa4b0" stroke-width="2.6" stroke-linejoin="round" stroke-linecap="round" />
<rect class="wlabel-bg" x="252.6" y="235" width="33.8" height="18" rx="5" fill="#fff" stroke="#e3e8ee" stroke-width="1" />
<text class="wlabel-t" x="269.5" y="244.5" font-family="JetBrains Mono, monospace" font-size="10.5" font-weight="600" fill="#5a6573" text-anchor="middle" dominant-baseline="middle">3V3</text>
</g>
<g data-system-connection-id="memory_supply">
<path class="wire" d="M 182 231.2 L 197 231.2 Q 206 231.2 206 240.2 L 206 275 Q 206 284 215 284 L 324 284 Q 333 284 333 275 L 333 273 Q 333 264 342 264 L 357 264" fill="none" stroke="#9aa4b0" stroke-width="2.6" stroke-linejoin="round" stroke-linecap="round" />
<rect class="wlabel-bg" x="252.6" y="275" width="33.8" height="18" rx="5" fill="#fff" stroke="#e3e8ee" stroke-width="1" />
<text class="wlabel-t" x="269.5" y="284.5" font-family="JetBrains Mono, monospace" font-size="10.5" font-weight="600" fill="#5a6573" text-anchor="middle" dominant-baseline="middle">3V3</text>
</g>
<g data-system-connection-id="led_driver_supply">
<path class="wire" d="M 182 253.6 L 197 253.6 Q 206 253.6 206 262.6 L 206 347 Q 206 356 215 356 L 357 356" fill="none" stroke="#9aa4b0" stroke-width="2.6" stroke-linejoin="round" stroke-linecap="round" />
<rect class="wlabel-bg" x="264.6" y="347" width="33.8" height="18" rx="5" fill="#fff" stroke="#e3e8ee" stroke-width="1" />
<text class="wlabel-t" x="281.5" y="356.5" font-family="JetBrains Mono, monospace" font-size="10.5" font-weight="600" fill="#5a6573" text-anchor="middle" dominant-baseline="middle">3V3</text>
</g>
<g class="block" data-system-block-id="pmic" transform="translate(58,164)">
<rect class="block-rect" width="124" height="112" rx="14" fill="#fff" stroke="#2b3543" stroke-width="1.6" />
<rect class="numbadge" x="9" y="9" width="22" height="18" rx="5" fill="#f1f4f8" stroke="#cfd6df" stroke-width="1" />
<text class="numbadge-t" x="20" y="22" font-family="Inter, sans-serif" font-size="11" font-weight="700" fill="#5a6573" text-anchor="middle">1</text>
<circle class="status-dot" cx="109" cy="18" r="7" fill="#22c55e" stroke="#fff" stroke-width="1.5" />
<path d="M 106 18 l 2 2 l 3.5 -4" stroke="#fff" stroke-width="1.6" fill="none" stroke-linecap="round" stroke-linejoin="round" />
<g transform="translate(39.6,26.6) scale(1.867)" fill="none" stroke="#1f2733" stroke-width="1.7" stroke-linecap="round" stroke-linejoin="round"><rect x="5" y="7" width="14" height="10" rx="2"/><path d="M9 7V4M15 7V4M10 12l1.6 0M14 10v4"/><circle cx="11" cy="12" r=".4"/></g>
<text class="block-label" x="62" y="99" font-family="Inter, sans-serif" font-size="12.5" font-weight="600" fill="#1f2733" text-anchor="middle">PMIC</text>
<circle class="port" data-system-port-id="vout_a" cx="124" cy="22.4" r="4.5" fill="#fff" stroke="#cfd6df" stroke-width="1.6" />
<circle class="port" data-system-port-id="vout_b" cx="124" cy="44.8" r="4.5" fill="#fff" stroke="#cfd6df" stroke-width="1.6" />
<circle class="port" data-system-port-id="vout_c" cx="124" cy="67.2" r="4.5" fill="#fff" stroke="#cfd6df" stroke-width="1.6" />
<circle class="port" data-system-port-id="vout_d" cx="124" cy="89.6" r="4.5" fill="#fff" stroke="#cfd6df" stroke-width="1.6" />
</g>
<g class="block" data-system-block-id="sensor" transform="translate(357,44)">
<rect class="block-rect" width="126" height="72" rx="14" fill="#fff" stroke="#2b3543" stroke-width="1.6" />
<rect class="numbadge" x="9" y="9" width="22" height="18" rx="5" fill="#f1f4f8" stroke="#cfd6df" stroke-width="1" />
<text class="numbadge-t" x="20" y="22" font-family="Inter, sans-serif" font-size="11" font-weight="700" fill="#5a6573" text-anchor="middle">2</text>
<circle class="status-dot" cx="111" cy="18" r="7" fill="#22c55e" stroke="#fff" stroke-width="1.5" />
<path d="M 108 18 l 2 2 l 3.5 -4" stroke="#fff" stroke-width="1.6" fill="none" stroke-linecap="round" stroke-linejoin="round" />
<g transform="translate(48.6,14.6) scale(1.2)" fill="none" stroke="#1f2733" stroke-width="1.7" stroke-linecap="round" stroke-linejoin="round"><rect x="6" y="6" width="12" height="12" rx="1.5"/><rect x="9.5" y="9.5" width="5" height="5" rx=".6"/><path d="M9 6V3M15 6V3M9 21v-3M15 21v-3M6 9H3M6 15H3M21 9h-3M21 15h-3"/></g>
<text class="block-label" x="63" y="59" font-family="Inter, sans-serif" font-size="12.5" font-weight="600" fill="#1f2733" text-anchor="middle">Sensor</text>
<circle class="port" data-system-port-id="sensor_vin" cx="0" cy="36" r="4.5" fill="#fff" stroke="#cfd6df" stroke-width="1.6" />
</g>
<g class="block" data-system-block-id="radio" transform="translate(357,136)">
<rect class="block-rect" width="126" height="72" rx="14" fill="#fff" stroke="#2b3543" stroke-width="1.6" />
<rect class="numbadge" x="9" y="9" width="22" height="18" rx="5" fill="#f1f4f8" stroke="#cfd6df" stroke-width="1" />
<text class="numbadge-t" x="20" y="22" font-family="Inter, sans-serif" font-size="11" font-weight="700" fill="#5a6573" text-anchor="middle">3</text>
<circle class="status-dot" cx="111" cy="18" r="7" fill="#22c55e" stroke="#fff" stroke-width="1.5" />
<path d="M 108 18 l 2 2 l 3.5 -4" stroke="#fff" stroke-width="1.6" fill="none" stroke-linecap="round" stroke-linejoin="round" />
<g transform="translate(48.6,14.6) scale(1.2)" fill="none" stroke="#1f2733" stroke-width="1.7" stroke-linecap="round" stroke-linejoin="round"><circle cx="12" cy="9" r="2"/><path d="M12 11v9M7.5 4.5a6.4 6.4 0 0 1 9 0M5 7a9.9 9.9 0 0 1 14 0"/></g>
<text class="block-label" x="63" y="59" font-family="Inter, sans-serif" font-size="12.5" font-weight="600" fill="#1f2733" text-anchor="middle">Radio</text>
<circle class="port" data-system-port-id="radio_vin" cx="0" cy="36" r="4.5" fill="#fff" stroke="#cfd6df" stroke-width="1.6" />
</g>
<g class="block" data-system-block-id="memory" transform="translate(357,228)">
<rect class="block-rect" width="126" height="72" rx="14" fill="#fff" stroke="#2b3543" stroke-width="1.6" />
<rect class="numbadge" x="9" y="9" width="22" height="18" rx="5" fill="#f1f4f8" stroke="#cfd6df" stroke-width="1" />
<text class="numbadge-t" x="20" y="22" font-family="Inter, sans-serif" font-size="11" font-weight="700" fill="#5a6573" text-anchor="middle">4</text>
<circle class="status-dot" cx="111" cy="18" r="7" fill="#22c55e" stroke="#fff" stroke-width="1.5" />
<path d="M 108 18 l 2 2 l 3.5 -4" stroke="#fff" stroke-width="1.6" fill="none" stroke-linecap="round" stroke-linejoin="round" />
<g transform="translate(48.6,14.6) scale(1.2)" fill="none" stroke="#1f2733" stroke-width="1.7" stroke-linecap="round" stroke-linejoin="round"><rect x="6" y="6" width="12" height="12" rx="1.5"/><rect x="9.5" y="9.5" width="5" height="5" rx=".6"/><path d="M9 6V3M15 6V3M9 21v-3M15 21v-3M6 9H3M6 15H3M21 9h-3M21 15h-3"/></g>
<text class="block-label" x="63" y="59" font-family="Inter, sans-serif" font-size="12.5" font-weight="600" fill="#1f2733" text-anchor="middle">Memory</text>
<circle class="port" data-system-port-id="memory_vin" cx="0" cy="36" r="4.5" fill="#fff" stroke="#cfd6df" stroke-width="1.6" />
</g>
<g class="block" data-system-block-id="led_driver" transform="translate(357,320)">
<rect class="block-rect" width="126" height="72" rx="14" fill="#fff" stroke="#2b3543" stroke-width="1.6" />
<rect class="numbadge" x="9" y="9" width="22" height="18" rx="5" fill="#f1f4f8" stroke="#cfd6df" stroke-width="1" />
<text class="numbadge-t" x="20" y="22" font-family="Inter, sans-serif" font-size="11" font-weight="700" fill="#5a6573" text-anchor="middle">5</text>
<circle class="status-dot" cx="111" cy="18" r="7" fill="#22c55e" stroke="#fff" stroke-width="1.5" />
<path d="M 108 18 l 2 2 l 3.5 -4" stroke="#fff" stroke-width="1.6" fill="none" stroke-linecap="round" stroke-linejoin="round" />
<g transform="translate(48.6,14.6) scale(1.2)" fill="none" stroke="#1f2733" stroke-width="1.7" stroke-linecap="round" stroke-linejoin="round"><rect x="6" y="6" width="12" height="12" rx="1.5"/><rect x="9.5" y="9.5" width="5" height="5" rx=".6"/><path d="M9 6V3M15 6V3M9 21v-3M15 21v-3M6 9H3M6 15H3M21 9h-3M21 15h-3"/></g>
<text class="block-label" x="63" y="59" font-family="Inter, sans-serif" font-size="12.5" font-weight="600" fill="#1f2733" text-anchor="middle">LED Driver</text>
<circle class="port" data-system-port-id="led_driver_vin" cx="0" cy="36" r="4.5" fill="#fff" stroke="#cfd6df" stroke-width="1.6" />
</g>
</g>
</svg>