<svg width="676" height="222" viewBox="0 0 676 222" xmlns="http://www.w3.org/2000/svg">
<defs>
<pattern id="dots" width="22" height="22" patternUnits="userSpaceOnUse">
<circle cx="1.4" cy="1.4" r="1.4" fill="#e6eaef" />
</pattern>
</defs>
<rect class="grid-bg" x="0" y="0" width="676" height="222" fill="url(#dots)" />
<g transform="translate(-22,-127)">
<g data-system-connection-id="near_i2c_a">
<path class="wire" d="M 250 211 L 470 211" fill="none" stroke="#9aa4b0" stroke-width="2.6" stroke-linejoin="round" stroke-linecap="round" />
<rect class="wlabel-bg" x="343.1" y="202" width="33.8" height="18" rx="5" fill="#fff" stroke="#e3e8ee" stroke-width="1" />
<text class="wlabel-t" x="360" y="211.5" font-family="JetBrains Mono, monospace" font-size="10.5" font-weight="600" fill="#5a6573" text-anchor="middle" dominant-baseline="middle">I2C</text>
</g>
<g data-system-connection-id="near_i2c_b">
<path class="wire" d="M 250 229 L 265 229 Q 274 229 274 238 L 274 292 Q 274 301 283 301 L 437 301 Q 446 301 446 292 L 446 238 Q 446 229 455 229 L 470 229" fill="none" stroke="#9aa4b0" stroke-width="2.6" stroke-linejoin="round" stroke-linecap="round" />
<rect class="wlabel-bg" x="343.1" y="292" width="33.8" height="18" rx="5" fill="#fff" stroke="#e3e8ee" stroke-width="1" />
<text class="wlabel-t" x="360" y="301.5" font-family="JetBrains Mono, monospace" font-size="10.5" font-weight="600" fill="#5a6573" text-anchor="middle" dominant-baseline="middle">I2C</text>
</g>
<g class="block" data-system-block-id="controller" transform="translate(70,175)">
<rect class="block-rect" width="180" height="90" rx="14" fill="#fff" stroke="#2b3543" stroke-width="1.6" />
<rect class="numbadge" x="9" y="9" width="22" height="18" rx="5" fill="#f1f4f8" stroke="#cfd6df" stroke-width="1" />
<text class="numbadge-t" x="20" y="22" font-family="Inter, sans-serif" font-size="11" font-weight="700" fill="#5a6573" text-anchor="middle">1</text>
<circle class="status-dot" cx="165" cy="18" r="7" fill="#22c55e" stroke="#fff" stroke-width="1.5" />
<path d="M 162 18 l 2 2 l 3.5 -4" stroke="#fff" stroke-width="1.6" fill="none" stroke-linecap="round" stroke-linejoin="round" />
<rect x="78.48" y="26.48" width="23.04" height="23.04" rx="5" fill="none" stroke="#1f2733" stroke-width="2" />
<path d="M 84.24 38 h 11.52 M 90 32.24 v 11.52" stroke="#1f2733" stroke-width="1.8" stroke-linecap="round" />
<text class="block-label" x="90" y="77" font-family="Inter, sans-serif" font-size="12.5" font-weight="600" fill="#1f2733" text-anchor="middle">Controller</text>
<circle class="port" data-system-port-id="controller_spare_top" cx="180" cy="18" r="4.5" fill="#fff" stroke="#cfd6df" stroke-width="1.6" />
<circle class="port" data-system-port-id="controller_i2c_a" cx="180" cy="36" r="4.5" fill="#fff" stroke="#cfd6df" stroke-width="1.6" />
<circle class="port" data-system-port-id="controller_i2c_b" cx="180" cy="54" r="4.5" fill="#fff" stroke="#cfd6df" stroke-width="1.6" />
<circle class="port" data-system-port-id="controller_spare_bottom" cx="180" cy="72" r="4.5" fill="#fff" stroke="#cfd6df" stroke-width="1.6" />
</g>
<g class="block" data-system-block-id="peripheral" transform="translate(470,175)">
<rect class="block-rect" width="180" height="90" rx="14" fill="#fff" stroke="#2b3543" stroke-width="1.6" />
<rect class="numbadge" x="9" y="9" width="22" height="18" rx="5" fill="#f1f4f8" stroke="#cfd6df" stroke-width="1" />
<text class="numbadge-t" x="20" y="22" font-family="Inter, sans-serif" font-size="11" font-weight="700" fill="#5a6573" text-anchor="middle">2</text>
<circle class="status-dot" cx="165" cy="18" r="7" fill="#22c55e" stroke="#fff" stroke-width="1.5" />
<path d="M 162 18 l 2 2 l 3.5 -4" stroke="#fff" stroke-width="1.6" fill="none" stroke-linecap="round" stroke-linejoin="round" />
<rect x="78.48" y="26.48" width="23.04" height="23.04" rx="5" fill="none" stroke="#1f2733" stroke-width="2" />
<path d="M 84.24 38 h 11.52 M 90 32.24 v 11.52" stroke="#1f2733" stroke-width="1.8" stroke-linecap="round" />
<text class="block-label" x="90" y="77" font-family="Inter, sans-serif" font-size="12.5" font-weight="600" fill="#1f2733" text-anchor="middle">Peripheral</text>
<circle class="port" data-system-port-id="peripheral_spare_top" cx="0" cy="18" r="4.5" fill="#fff" stroke="#cfd6df" stroke-width="1.6" />
<circle class="port" data-system-port-id="peripheral_i2c_a" cx="0" cy="36" r="4.5" fill="#fff" stroke="#cfd6df" stroke-width="1.6" />
<circle class="port" data-system-port-id="peripheral_i2c_b" cx="0" cy="54" r="4.5" fill="#fff" stroke="#cfd6df" stroke-width="1.6" />
<circle class="port" data-system-port-id="peripheral_spare_bottom" cx="0" cy="72" r="4.5" fill="#fff" stroke="#cfd6df" stroke-width="1.6" />
</g>
</g>
</svg>