<svg width="983.5" height="600" viewBox="0 0 983.5 600" xmlns="http://www.w3.org/2000/svg">
<defs>
<pattern id="dots" width="22" height="22" patternUnits="userSpaceOnUse">
<circle cx="1.4" cy="1.4" r="1.4" fill="#e6eaef" />
</pattern>
</defs>
<rect class="grid-bg" x="0" y="0" width="983.5" height="600" fill="url(#dots)" />
<g transform="translate(-72,-77)">
<g data-system-connection-id="supply_top_lane">
<path class="wire" d="M 250 185 L 250 134 Q 250 125 259 125 L 651 125 Q 660 125 660 134 L 660 149" fill="none" stroke="#9aa4b0" stroke-width="2.6" stroke-linejoin="round" stroke-linecap="round" />
<rect class="wlabel-bg" x="428.2" y="116" width="53.6" height="18" rx="5" fill="#fff" stroke="#e3e8ee" stroke-width="1" />
<text class="wlabel-t" x="455" y="125.5" font-family="JetBrains Mono, monospace" font-size="10.5" font-weight="600" fill="#5a6573" text-anchor="middle" dominant-baseline="middle">SUPPLY</text>
</g>
<g data-system-connection-id="i2c_monitor">
<path class="wire" d="M 380 260 L 497 260 Q 506 260 506 251 L 506 229 Q 506 220 515 220 L 530 220" fill="none" stroke="#9aa4b0" stroke-width="2.6" stroke-linejoin="round" stroke-linecap="round" />
<rect class="wlabel-bg" x="426.1" y="251" width="33.8" height="18" rx="5" fill="#fff" stroke="#e3e8ee" stroke-width="1" />
<text class="wlabel-t" x="443" y="260.5" font-family="JetBrains Mono, monospace" font-size="10.5" font-weight="600" fill="#5a6573" text-anchor="middle" dominant-baseline="middle">I2C</text>
</g>
<g data-system-connection-id="i2c_sensor">
<path class="wire" d="M 380 260 L 485 260 Q 494 260 494 269 L 494 566 Q 494 575 503 575 L 792.5 575" fill="none" stroke="#9aa4b0" stroke-width="2.6" stroke-linejoin="round" stroke-linecap="round" />
<rect class="wlabel-bg" x="477.1" y="408.5" width="33.8" height="18" rx="5" fill="#fff" stroke="#e3e8ee" stroke-width="1" />
<text class="wlabel-t" x="494" y="418" font-family="JetBrains Mono, monospace" font-size="10.5" font-weight="600" fill="#5a6573" text-anchor="middle" dominant-baseline="middle">I2C</text>
</g>
<g class="block" data-system-block-id="microcontroller" transform="translate(120,185)">
<rect class="block-rect" width="260" height="150" rx="14" fill="#fff" stroke="#2b3543" stroke-width="1.6" />
<rect class="numbadge" x="9" y="9" width="22" height="18" rx="5" fill="#f1f4f8" stroke="#cfd6df" stroke-width="1" />
<text class="numbadge-t" x="20" y="22" font-family="Inter, sans-serif" font-size="11" font-weight="700" fill="#5a6573" text-anchor="middle">1</text>
<circle class="status-dot" cx="245" cy="18" r="7" fill="#22c55e" stroke="#fff" stroke-width="1.5" />
<path d="M 242 18 l 2 2 l 3.5 -4" stroke="#fff" stroke-width="1.6" fill="none" stroke-linecap="round" stroke-linejoin="round" />
<rect x="115.28" y="53.28" width="29.44" height="29.44" rx="5" fill="none" stroke="#1f2733" stroke-width="2" />
<path d="M 122.64 68 h 14.72 M 130 60.64 v 14.72" stroke="#1f2733" stroke-width="1.8" stroke-linecap="round" />
<text class="block-label" x="130" y="137" font-family="Inter, sans-serif" font-size="12.5" font-weight="600" fill="#1f2733" text-anchor="middle">Microcontroller</text>
<circle class="port" data-system-port-id="mcu_supply" cx="130" cy="0" r="4.5" fill="#fff" stroke="#cfd6df" stroke-width="1.6" />
<circle class="port" data-system-port-id="mcu_i2c" cx="260" cy="75" r="4.5" fill="#fff" stroke="#cfd6df" stroke-width="1.6" />
</g>
<g class="block" data-system-block-id="environmental_sensor" transform="translate(792.5,521)">
<rect class="block-rect" width="215" height="108" rx="14" fill="#fff" stroke="#2b3543" stroke-width="1.6" />
<rect class="numbadge" x="9" y="9" width="22" height="18" rx="5" fill="#f1f4f8" stroke="#cfd6df" stroke-width="1" />
<text class="numbadge-t" x="20" y="22" font-family="Inter, sans-serif" font-size="11" font-weight="700" fill="#5a6573" text-anchor="middle">2</text>
<circle class="status-dot" cx="200" cy="18" r="7" fill="#22c55e" stroke="#fff" stroke-width="1.5" />
<path d="M 197 18 l 2 2 l 3.5 -4" stroke="#fff" stroke-width="1.6" fill="none" stroke-linecap="round" stroke-linejoin="round" />
<rect x="93.676" y="33.176" width="27.648" height="27.648" rx="5" fill="none" stroke="#1f2733" stroke-width="2" />
<path d="M 100.588 47 h 13.824 M 107.5 40.088 v 13.824" stroke="#1f2733" stroke-width="1.8" stroke-linecap="round" />
<text class="block-label" x="107.5" y="95" font-family="Inter, sans-serif" font-size="12.5" font-weight="600" fill="#1f2733" text-anchor="middle">Environmental Sensor</text>
<circle class="port" data-system-port-id="sensor_i2c" cx="0" cy="54" r="4.5" fill="#fff" stroke="#cfd6df" stroke-width="1.6" />
</g>
<g class="block" data-system-block-id="power_monitor" transform="translate(530,149)">
<rect class="block-rect" width="260" height="142" rx="14" fill="#fff" stroke="#2b3543" stroke-width="1.6" />
<rect class="numbadge" x="9" y="9" width="22" height="18" rx="5" fill="#f1f4f8" stroke="#cfd6df" stroke-width="1" />
<text class="numbadge-t" x="20" y="22" font-family="Inter, sans-serif" font-size="11" font-weight="700" fill="#5a6573" text-anchor="middle">3</text>
<circle class="status-dot" cx="245" cy="18" r="7" fill="#22c55e" stroke="#fff" stroke-width="1.5" />
<path d="M 242 18 l 2 2 l 3.5 -4" stroke="#fff" stroke-width="1.6" fill="none" stroke-linecap="round" stroke-linejoin="round" />
<circle cx="130" cy="64" r="12.88" fill="none" stroke="#1f2733" stroke-width="2" />
<path d="M 130 49.28 v 12.88" stroke="#1f2733" stroke-width="2.4" stroke-linecap="round" />
<text class="block-label" x="130" y="129" font-family="Inter, sans-serif" font-size="12.5" font-weight="600" fill="#1f2733" text-anchor="middle">Power Monitor</text>
<circle class="port" data-system-port-id="monitor_supply" cx="130" cy="0" r="4.5" fill="#fff" stroke="#cfd6df" stroke-width="1.6" />
<circle class="port" data-system-port-id="monitor_i2c" cx="0" cy="71" r="4.5" fill="#fff" stroke="#cfd6df" stroke-width="1.6" />
</g>
</g>
</svg>