<svg width="760" height="360" viewBox="0 0 760 360" xmlns="http://www.w3.org/2000/svg">
<defs>
<pattern id="dots" width="22" height="22" patternUnits="userSpaceOnUse">
<circle cx="1.4" cy="1.4" r="1.4" fill="#e6eaef" />
</pattern>
</defs>
<rect class="grid-bg" x="0" y="0" width="760" height="360" fill="url(#dots)" />
<g transform="translate(-22,8)">
<g data-system-connection-id="gpio1_connection">
<path class="wire" d="M 290 154 L 367 154 Q 376 154 376 145 L 376 142.33333333333331 Q 376 133.33333333333331 385 133.33333333333331 L 400 133.33333333333331" fill="none" stroke="#9aa4b0" stroke-width="2.6" stroke-linejoin="round" stroke-linecap="round" />
<rect class="wlabel-bg" x="309.5" y="145" width="47" height="18" rx="5" fill="#fff" stroke="#e3e8ee" stroke-width="1" />
<text class="wlabel-t" x="333" y="154.5" font-family="JetBrains Mono, monospace" font-size="10.5" font-weight="600" fill="#5a6573" text-anchor="middle" dominant-baseline="middle">GPIO1</text>
</g>
<g data-system-connection-id="gpio2_connection">
<path class="wire" d="M 290 206 L 367 206 Q 376 206 376 215 L 376 217.66666666666666 Q 376 226.66666666666666 385 226.66666666666666 L 400 226.66666666666666" fill="none" stroke="#9aa4b0" stroke-width="2.6" stroke-linejoin="round" stroke-linecap="round" />
<rect class="wlabel-bg" x="309.5" y="197" width="47" height="18" rx="5" fill="#fff" stroke="#e3e8ee" stroke-width="1" />
<text class="wlabel-t" x="333" y="206.5" font-family="JetBrains Mono, monospace" font-size="10.5" font-weight="600" fill="#5a6573" text-anchor="middle" dominant-baseline="middle">GPIO2</text>
</g>
<g class="block" data-system-block-id="controller_a" transform="translate(70,102)">
<rect class="block-rect" width="220" height="156" rx="14" fill="#fff" stroke="#2b3543" stroke-width="1.6" />
<rect class="numbadge" x="9" y="9" width="22" height="18" rx="5" fill="#f1f4f8" stroke="#cfd6df" stroke-width="1" />
<text class="numbadge-t" x="20" y="22" font-family="Inter, sans-serif" font-size="11" font-weight="700" fill="#5a6573" text-anchor="middle">1</text>
<circle class="status-dot" cx="205" cy="18" r="7" fill="#22c55e" stroke="#fff" stroke-width="1.5" />
<path d="M 202 18 l 2 2 l 3.5 -4" stroke="#fff" stroke-width="1.6" fill="none" stroke-linecap="round" stroke-linejoin="round" />
<g transform="translate(87,48) scale(1.917)" fill="none" stroke="#1f2733" stroke-width="1.7" stroke-linecap="round" stroke-linejoin="round"><rect x="6" y="6" width="12" height="12" rx="1.5"/><rect x="9.5" y="9.5" width="5" height="5" rx=".6"/><path d="M9 6V3M15 6V3M9 21v-3M15 21v-3M6 9H3M6 15H3M21 9h-3M21 15h-3"/></g>
<text class="block-label" x="110" y="143" font-family="Inter, sans-serif" font-size="12.5" font-weight="600" fill="#1f2733" text-anchor="middle">Microcontroller</text>
<circle class="port" data-system-port-id="controller_gpio1" cx="220" cy="52" r="4.5" fill="#fff" stroke="#cfd6df" stroke-width="1.6" />
<circle class="port" data-system-port-id="controller_gpio2" cx="220" cy="104" r="4.5" fill="#fff" stroke="#cfd6df" stroke-width="1.6" />
</g>
<g class="block" data-system-block-id="wireless_mcu" transform="translate(400,40)">
<rect class="block-rect" width="360" height="280" rx="14" fill="#fff" stroke="#2b3543" stroke-width="1.6" />
<rect class="numbadge" x="9" y="9" width="22" height="18" rx="5" fill="#f1f4f8" stroke="#cfd6df" stroke-width="1" />
<text class="numbadge-t" x="20" y="22" font-family="Inter, sans-serif" font-size="11" font-weight="700" fill="#5a6573" text-anchor="middle">2</text>
<circle class="status-dot" cx="345" cy="18" r="7" fill="#22c55e" stroke="#fff" stroke-width="1.5" />
<path d="M 342 18 l 2 2 l 3.5 -4" stroke="#fff" stroke-width="1.6" fill="none" stroke-linecap="round" stroke-linejoin="round" />
<g transform="translate(157,110) scale(1.917)" fill="none" stroke="#1f2733" stroke-width="1.7" stroke-linecap="round" stroke-linejoin="round"><circle cx="12" cy="9" r="2"/><path d="M12 11v9M7.5 4.5a6.4 6.4 0 0 1 9 0M5 7a9.9 9.9 0 0 1 14 0"/></g>
<text class="block-label" x="180" y="267" font-family="Inter, sans-serif" font-size="12.5" font-weight="600" fill="#1f2733" text-anchor="middle">Bluetooth Wireless MCU</text>
<circle class="port" data-system-port-id="wireless_mcu_gpio1" cx="0" cy="93.333" r="4.5" fill="#fff" stroke="#cfd6df" stroke-width="1.6" />
<circle class="port" data-system-port-id="wireless_mcu_gpio2" cx="0" cy="186.667" r="4.5" fill="#fff" stroke="#cfd6df" stroke-width="1.6" />
</g>
</g>
</svg>