<svg width="760" height="360" viewBox="0 0 760 360" xmlns="http://www.w3.org/2000/svg">
<defs>
<pattern id="dots" width="22" height="22" patternUnits="userSpaceOnUse">
<circle cx="1.4" cy="1.4" r="1.4" fill="#e6eaef" />
</pattern>
</defs>
<rect class="grid-bg" x="0" y="0" width="760" height="360" fill="url(#dots)" />
<g transform="translate(18,-22)">
<g data-system-connection-id="spi_connection">
<path class="wire" d="M 330 180 L 470 180" fill="none" stroke="#9aa4b0" stroke-width="2.6" stroke-linejoin="round" stroke-linecap="round" />
<rect class="wlabel-bg" x="383.1" y="171" width="33.8" height="18" rx="5" fill="#fff" stroke="#e3e8ee" stroke-width="1" />
<text class="wlabel-t" x="400" y="180.5" font-family="JetBrains Mono, monospace" font-size="10.5" font-weight="600" fill="#5a6573" text-anchor="middle" dominant-baseline="middle">SPI</text>
</g>
<g class="block" data-system-block-id="reader" transform="translate(30,70)">
<rect class="block-rect" width="300" height="220" rx="14" fill="#fff" stroke="#2b3543" stroke-width="1.6" />
<rect class="numbadge" x="9" y="9" width="22" height="18" rx="5" fill="#f1f4f8" stroke="#cfd6df" stroke-width="1" />
<text class="numbadge-t" x="20" y="22" font-family="Inter, sans-serif" font-size="11" font-weight="700" fill="#5a6573" text-anchor="middle">1</text>
<circle class="status-dot" cx="285" cy="18" r="7" fill="#22c55e" stroke="#fff" stroke-width="1.5" />
<path d="M 282 18 l 2 2 l 3.5 -4" stroke="#fff" stroke-width="1.6" fill="none" stroke-linecap="round" stroke-linejoin="round" />
<g transform="translate(127,80) scale(1.917)" fill="none" stroke="#1f2733" stroke-width="1.7" stroke-linecap="round" stroke-linejoin="round"><rect x="6" y="6" width="12" height="12" rx="2"/><path d="M9 15V9l6 6V9"/></g>
<text class="block-label" x="150" y="207" font-family="Inter, sans-serif" font-size="12.5" font-weight="600" fill="#1f2733" text-anchor="middle">RFID/NFC Transceiver</text>
<circle class="port" data-system-port-id="reader_interface" cx="300" cy="110" r="4.5" fill="#fff" stroke="#cfd6df" stroke-width="1.6" />
</g>
<g class="block" data-system-block-id="flash" transform="translate(470,106)">
<rect class="block-rect" width="220" height="148" rx="14" fill="#fff" stroke="#2b3543" stroke-width="1.6" />
<rect class="numbadge" x="9" y="9" width="22" height="18" rx="5" fill="#f1f4f8" stroke="#cfd6df" stroke-width="1" />
<text class="numbadge-t" x="20" y="22" font-family="Inter, sans-serif" font-size="11" font-weight="700" fill="#5a6573" text-anchor="middle">2</text>
<circle class="status-dot" cx="205" cy="18" r="7" fill="#22c55e" stroke="#fff" stroke-width="1.5" />
<path d="M 202 18 l 2 2 l 3.5 -4" stroke="#fff" stroke-width="1.6" fill="none" stroke-linecap="round" stroke-linejoin="round" />
<g transform="translate(87,44) scale(1.917)" fill="none" stroke="#1f2733" stroke-width="1.7" stroke-linecap="round" stroke-linejoin="round"><rect x="5" y="6" width="14" height="12" rx="1.5"/><path d="M8 6V3.5M12 6V3.5M16 6V3.5M8 18v2.5M12 18v2.5M16 18v2.5M9 10h6M9 13h6"/></g>
<text class="block-label" x="110" y="135" font-family="Inter, sans-serif" font-size="12.5" font-weight="600" fill="#1f2733" text-anchor="middle">QSPI Flash Memory</text>
<circle class="port" data-system-port-id="flash_interface" cx="0" cy="74" r="4.5" fill="#fff" stroke="#cfd6df" stroke-width="1.6" />
</g>
</g>
</svg>